<?xml version="1.0" encoding="UTF-8" standalone="no"?>
<!DOCTYPE svg PUBLIC "-//W3C//DTD SVG 1.1//EN"
 "http://www.w3.org/Graphics/SVG/1.1/DTD/svg11.dtd">
<!-- Generated by graphviz version 2.43.0 (0)
 -->
<!-- Title: G Pages: 1 -->
<svg width="703pt" height="675pt"
 viewBox="0.00 0.00 703.42 674.98" xmlns="http://www.w3.org/2000/svg" xmlns:xlink="http://www.w3.org/1999/xlink">
<g id="graph0" class="graph" transform="scale(1 1) rotate(0) translate(21.6 653.38)">
<title>G</title>
<polygon fill="#ffffff" stroke="transparent" points="-21.6,21.6 -21.6,-653.38 681.82,-653.38 681.82,21.6 -21.6,21.6"/>
<!-- app.module.ts -->
<g id="node1" class="node">
<title>app.module.ts</title>
<path fill="none" stroke="black" d="M318.97,-402.68C318.97,-402.68 253.64,-402.68 253.64,-402.68 250.47,-402.68 247.31,-399.52 247.31,-396.35 247.31,-396.35 247.31,-390.02 247.31,-390.02 247.31,-386.85 250.47,-383.68 253.64,-383.68 253.64,-383.68 318.97,-383.68 318.97,-383.68 322.14,-383.68 325.31,-386.85 325.31,-390.02 325.31,-390.02 325.31,-396.35 325.31,-396.35 325.31,-399.52 322.14,-402.68 318.97,-402.68"/>
<text text-anchor="middle" x="286.31" y="-390.68" font-family="Arial" font-size="10.00">app.module.ts</text>
</g>
<!-- files/files.module.ts -->
<g id="node2" class="node">
<title>files/files.module.ts</title>
<path fill="none" stroke="black" d="M447.52,-321.83C447.52,-321.83 359.19,-321.83 359.19,-321.83 356.02,-321.83 352.86,-318.66 352.86,-315.49 352.86,-315.49 352.86,-309.16 352.86,-309.16 352.86,-305.99 356.02,-302.83 359.19,-302.83 359.19,-302.83 447.52,-302.83 447.52,-302.83 450.69,-302.83 453.86,-305.99 453.86,-309.16 453.86,-309.16 453.86,-315.49 453.86,-315.49 453.86,-318.66 450.69,-321.83 447.52,-321.83"/>
<text text-anchor="middle" x="403.36" y="-309.83" font-family="Arial" font-size="10.00">files/files.module.ts</text>
</g>
<!-- app.module.ts&#45;&gt;files/files.module.ts -->
<g id="edge1" class="edge">
<title>app.module.ts&#45;&gt;files/files.module.ts</title>
<path fill="none" stroke="green" d="M325.5,-384.46C353.92,-376.55 364.19,-366.32 390.55,-330.1"/>
<polygon fill="green" stroke="green" points="393.41,-332.12 396.43,-321.97 387.73,-328.02 393.41,-332.12"/>
</g>
<!-- files/resolvers/files.resolver.ts -->
<g id="node5" class="node">
<title>files/resolvers/files.resolver.ts</title>
<path fill="none" stroke="black" d="M602.54,-347.52C602.54,-347.52 468.2,-347.52 468.2,-347.52 465.04,-347.52 461.87,-344.35 461.87,-341.18 461.87,-341.18 461.87,-334.85 461.87,-334.85 461.87,-331.68 465.04,-328.52 468.2,-328.52 468.2,-328.52 602.54,-328.52 602.54,-328.52 605.7,-328.52 608.87,-331.68 608.87,-334.85 608.87,-334.85 608.87,-341.18 608.87,-341.18 608.87,-344.35 605.7,-347.52 602.54,-347.52"/>
<text text-anchor="middle" x="535.37" y="-335.52" font-family="Arial" font-size="10.00">files/resolvers/files.resolver.ts</text>
</g>
<!-- files/files.module.ts&#45;&gt;files/resolvers/files.resolver.ts -->
<g id="edge5" class="edge">
<title>files/files.module.ts&#45;&gt;files/resolvers/files.resolver.ts</title>
<path fill="none" stroke="green" d="M454.04,-320.37C469.38,-322.86 480.24,-324.72 489.13,-326.44"/>
<polygon fill="green" stroke="green" points="488.67,-329.92 499.17,-328.51 490.08,-323.07 488.67,-329.92"/>
</g>
<!-- files/services/files&#45;service.factory.ts -->
<g id="node6" class="node">
<title>files/services/files&#45;service.factory.ts</title>
<path fill="none" stroke="black" d="M544.24,-251.91C544.24,-251.91 383.91,-251.91 383.91,-251.91 380.74,-251.91 377.57,-248.74 377.57,-245.58 377.57,-245.58 377.57,-239.24 377.57,-239.24 377.57,-236.08 380.74,-232.91 383.91,-232.91 383.91,-232.91 544.24,-232.91 544.24,-232.91 547.41,-232.91 550.57,-236.08 550.57,-239.24 550.57,-239.24 550.57,-245.58 550.57,-245.58 550.57,-248.74 547.41,-251.91 544.24,-251.91"/>
<text text-anchor="middle" x="464.07" y="-239.91" font-family="Arial" font-size="10.00">files/services/files&#45;service.factory.ts</text>
</g>
<!-- files/files.module.ts&#45;&gt;files/services/files&#45;service.factory.ts -->
<g id="edge6" class="edge">
<title>files/files.module.ts&#45;&gt;files/services/files&#45;service.factory.ts</title>
<path fill="none" stroke="green" d="M414.64,-302.52C439.9,-280.52 448.18,-272.66 454.82,-261.29"/>
<polygon fill="green" stroke="green" points="458.07,-262.62 459.58,-252.14 451.86,-259.39 458.07,-262.62"/>
</g>
<!-- files/services/gitlab&#45;files.service.ts -->
<g id="node7" class="node">
<title>files/services/gitlab&#45;files.service.ts</title>
<path fill="none" stroke="black" d="M527.45,-154.22C527.45,-154.22 373.11,-154.22 373.11,-154.22 369.95,-154.22 366.78,-151.06 366.78,-147.89 366.78,-147.89 366.78,-141.56 366.78,-141.56 366.78,-138.39 369.95,-135.22 373.11,-135.22 373.11,-135.22 527.45,-135.22 527.45,-135.22 530.61,-135.22 533.78,-138.39 533.78,-141.56 533.78,-141.56 533.78,-147.89 533.78,-147.89 533.78,-151.06 530.61,-154.22 527.45,-154.22"/>
<text text-anchor="middle" x="450.28" y="-142.22" font-family="Arial" font-size="10.00">files/services/gitlab&#45;files.service.ts</text>
</g>
<!-- files/files.module.ts&#45;&gt;files/services/gitlab&#45;files.service.ts -->
<g id="edge7" class="edge">
<title>files/files.module.ts&#45;&gt;files/services/gitlab&#45;files.service.ts</title>
<path fill="none" stroke="green" d="M407.84,-302.59C446.97,-217.47 451.87,-205.3 450.96,-164.56"/>
<polygon fill="green" stroke="green" points="454.45,-164.36 450.65,-154.47 447.46,-164.57 454.45,-164.36"/>
</g>
<!-- files/services/local&#45;files.service.ts -->
<g id="node8" class="node">
<title>files/services/local&#45;files.service.ts</title>
<path fill="none" stroke="black" d="M649.4,-319.71C649.4,-319.71 498.07,-319.71 498.07,-319.71 494.9,-319.71 491.74,-316.54 491.74,-313.38 491.74,-313.38 491.74,-307.04 491.74,-307.04 491.74,-303.88 494.9,-300.71 498.07,-300.71 498.07,-300.71 649.4,-300.71 649.4,-300.71 652.57,-300.71 655.74,-303.88 655.74,-307.04 655.74,-307.04 655.74,-313.38 655.74,-313.38 655.74,-316.54 652.57,-319.71 649.4,-319.71"/>
<text text-anchor="middle" x="573.74" y="-307.71" font-family="Arial" font-size="10.00">files/services/local&#45;files.service.ts</text>
</g>
<!-- files/files.module.ts&#45;&gt;files/services/local&#45;files.service.ts -->
<g id="edge8" class="edge">
<title>files/files.module.ts&#45;&gt;files/services/local&#45;files.service.ts</title>
<path fill="none" stroke="green" d="M454.16,-311.46C464.49,-311.28 473.44,-311.13 481.34,-311"/>
<polygon fill="green" stroke="green" points="481.55,-314.5 491.49,-310.84 481.44,-307.5 481.55,-314.5"/>
</g>
<!-- bootstrap.ts -->
<g id="node3" class="node">
<title>bootstrap.ts</title>
<path fill="none" stroke="black" d="M197.18,-485.5C197.18,-485.5 141.84,-485.5 141.84,-485.5 138.68,-485.5 135.51,-482.33 135.51,-479.16 135.51,-479.16 135.51,-472.83 135.51,-472.83 135.51,-469.66 138.68,-466.5 141.84,-466.5 141.84,-466.5 197.18,-466.5 197.18,-466.5 200.34,-466.5 203.51,-469.66 203.51,-472.83 203.51,-472.83 203.51,-479.16 203.51,-479.16 203.51,-482.33 200.34,-485.5 197.18,-485.5"/>
<text text-anchor="middle" x="169.51" y="-473.5" font-family="Arial" font-size="10.00">bootstrap.ts</text>
</g>
<!-- bootstrap.ts&#45;&gt;app.module.ts -->
<g id="edge2" class="edge">
<title>bootstrap.ts&#45;&gt;app.module.ts</title>
<path fill="none" stroke="green" d="M188.43,-466.45C209.22,-455.5 220.8,-446.72 266.52,-409.37"/>
<polygon fill="green" stroke="green" points="268.96,-411.9 274.48,-402.86 264.53,-406.48 268.96,-411.9"/>
</g>
<!-- cloudcmd/cloudcmd.ts -->
<g id="node4" class="node">
<title>cloudcmd/cloudcmd.ts</title>
<path fill="none" stroke="red" d="M207.89,-631.78C207.89,-631.78 105.55,-631.78 105.55,-631.78 102.39,-631.78 99.22,-628.61 99.22,-625.45 99.22,-625.45 99.22,-619.11 99.22,-619.11 99.22,-615.95 102.39,-612.78 105.55,-612.78 105.55,-612.78 207.89,-612.78 207.89,-612.78 211.05,-612.78 214.22,-615.95 214.22,-619.11 214.22,-619.11 214.22,-625.45 214.22,-625.45 214.22,-628.61 211.05,-631.78 207.89,-631.78"/>
<text text-anchor="middle" x="156.72" y="-619.78" font-family="Arial" font-size="10.00" fill="red">cloudcmd/cloudcmd.ts</text>
</g>
<!-- bootstrap.ts&#45;&gt;cloudcmd/cloudcmd.ts -->
<g id="edge3" class="edge">
<title>bootstrap.ts&#45;&gt;cloudcmd/cloudcmd.ts</title>
<path fill="none" stroke="green" d="M167.18,-485.61C149.44,-558.99 146.83,-571.95 152.55,-602.32"/>
<polygon fill="green" stroke="green" points="149.17,-603.29 154.59,-612.39 156.04,-601.9 149.17,-603.29"/>
</g>
<!-- cloudcmd/cloudcmd.ts&#45;&gt;cloudcmd/cloudcmd.ts -->
<g id="edge4" class="edge">
<title>cloudcmd/cloudcmd.ts&#45;&gt;cloudcmd/cloudcmd.ts</title>
<path fill="none" stroke="green" d="M214.33,-628.66C224.84,-627.85 232.22,-625.73 232.22,-622.28 232.22,-620.07 229.19,-618.41 224.25,-617.28"/>
<polygon fill="green" stroke="green" points="224.71,-613.81 214.33,-615.9 223.75,-620.75 224.71,-613.81"/>
</g>
<!-- files/resolvers/files.resolver.ts&#45;&gt;files/services/files&#45;service.factory.ts -->
<g id="edge11" class="edge">
<title>files/resolvers/files.resolver.ts&#45;&gt;files/services/files&#45;service.factory.ts</title>
<path fill="none" stroke="green" d="M533.11,-328.43C524.5,-292.53 520.57,-285.32 485.03,-258.16"/>
<polygon fill="green" stroke="green" points="487.03,-255.29 476.95,-252.04 482.81,-260.87 487.03,-255.29"/>
</g>
<!-- files/interfaces/files.service.interface.ts -->
<g id="node9" class="node">
<title>files/interfaces/files.service.interface.ts</title>
<path fill="none" stroke="black" d="M649.41,-184.38C649.41,-184.38 474.08,-184.38 474.08,-184.38 470.91,-184.38 467.74,-181.22 467.74,-178.05 467.74,-178.05 467.74,-171.72 467.74,-171.72 467.74,-168.55 470.91,-165.38 474.08,-165.38 474.08,-165.38 649.41,-165.38 649.41,-165.38 652.58,-165.38 655.74,-168.55 655.74,-171.72 655.74,-171.72 655.74,-178.05 655.74,-178.05 655.74,-181.22 652.58,-184.38 649.41,-184.38"/>
<text text-anchor="middle" x="561.74" y="-172.38" font-family="Arial" font-size="10.00">files/interfaces/files.service.interface.ts</text>
</g>
<!-- files/resolvers/files.resolver.ts&#45;&gt;files/interfaces/files.service.interface.ts -->
<g id="edge10" class="edge">
<title>files/resolvers/files.resolver.ts&#45;&gt;files/interfaces/files.service.interface.ts</title>
<path fill="none" stroke="green" d="M540.2,-328.33C576.29,-255.96 579.46,-246.43 566.72,-194.53"/>
<polygon fill="green" stroke="green" points="570.08,-193.55 564.25,-184.7 563.29,-195.25 570.08,-193.55"/>
</g>
<!-- types.ts -->
<g id="node10" class="node">
<title>types.ts</title>
<path fill="none" stroke="green" d="M653.88,-217.68C653.88,-217.68 612.55,-217.68 612.55,-217.68 609.38,-217.68 606.22,-214.51 606.22,-211.35 606.22,-211.35 606.22,-205.01 606.22,-205.01 606.22,-201.85 609.38,-198.68 612.55,-198.68 612.55,-198.68 653.88,-198.68 653.88,-198.68 657.05,-198.68 660.22,-201.85 660.22,-205.01 660.22,-205.01 660.22,-211.35 660.22,-211.35 660.22,-214.51 657.05,-217.68 653.88,-217.68"/>
<text text-anchor="middle" x="633.22" y="-205.68" font-family="Arial" font-size="10.00" fill="green">types.ts</text>
</g>
<!-- files/resolvers/files.resolver.ts&#45;&gt;types.ts -->
<g id="edge12" class="edge">
<title>files/resolvers/files.resolver.ts&#45;&gt;types.ts</title>
<path fill="none" stroke="green" d="M546.67,-328.2C607.32,-275.46 615.81,-266.5 627.54,-227.81"/>
<polygon fill="green" stroke="green" points="630.99,-228.48 630.45,-217.89 624.28,-226.5 630.99,-228.48"/>
</g>
<!-- files/services/files&#45;service.factory.ts&#45;&gt;files/services/gitlab&#45;files.service.ts -->
<g id="edge14" class="edge">
<title>files/services/files&#45;service.factory.ts&#45;&gt;files/services/gitlab&#45;files.service.ts</title>
<path fill="none" stroke="green" d="M465.21,-232.7C469.95,-191.65 470.36,-181.35 460.99,-163.28"/>
<polygon fill="green" stroke="green" points="463.91,-161.32 455.98,-154.29 457.79,-164.73 463.91,-161.32"/>
</g>
<!-- files/services/files&#45;service.factory.ts&#45;&gt;files/services/local&#45;files.service.ts -->
<g id="edge15" class="edge">
<title>files/services/files&#45;service.factory.ts&#45;&gt;files/services/local&#45;files.service.ts</title>
<path fill="none" stroke="green" d="M490.56,-251.93C533.61,-267.62 544.42,-273.54 560.13,-292.63"/>
<polygon fill="green" stroke="green" points="557.52,-294.97 566.47,-300.64 563.01,-290.63 557.52,-294.97"/>
</g>
<!-- files/services/files&#45;service.factory.ts&#45;&gt;files/interfaces/files.service.interface.ts -->
<g id="edge13" class="edge">
<title>files/services/files&#45;service.factory.ts&#45;&gt;files/interfaces/files.service.interface.ts</title>
<path fill="none" stroke="green" d="M478.75,-232.71C515.28,-208.58 528.35,-199.85 540.76,-190.77"/>
<polygon fill="green" stroke="green" points="543.13,-193.36 549.05,-184.58 538.95,-187.75 543.13,-193.36"/>
</g>
<!-- files/services/gitlab&#45;files.service.ts&#45;&gt;files/interfaces/files.service.interface.ts -->
<g id="edge16" class="edge">
<title>files/services/gitlab&#45;files.service.ts&#45;&gt;files/interfaces/files.service.interface.ts</title>
<path fill="none" stroke="green" d="M533.55,-154.37C535.96,-155.73 538.41,-157.29 540.98,-159.06"/>
<polygon fill="green" stroke="green" points="539.04,-161.98 549.18,-165.05 543.17,-156.33 539.04,-161.98"/>
</g>
<!-- files/services/gitlab&#45;files.service.ts&#45;&gt;types.ts -->
<g id="edge18" class="edge">
<title>files/services/gitlab&#45;files.service.ts&#45;&gt;types.ts</title>
<path fill="none" stroke="green" d="M534.14,-153.14C571.94,-158.9 586.96,-167.65 614.62,-191.66"/>
<polygon fill="green" stroke="green" points="612.54,-194.49 622.36,-198.47 617.16,-189.23 612.54,-194.49"/>
</g>
<!-- files/queries.ts -->
<g id="node11" class="node">
<title>files/queries.ts</title>
<path fill="none" stroke="green" d="M438.94,-19C438.94,-19 371.61,-19 371.61,-19 368.44,-19 365.28,-15.83 365.28,-12.67 365.28,-12.67 365.28,-6.33 365.28,-6.33 365.28,-3.17 368.44,0 371.61,0 371.61,0 438.94,0 438.94,0 442.11,0 445.28,-3.17 445.28,-6.33 445.28,-6.33 445.28,-12.67 445.28,-12.67 445.28,-15.83 442.11,-19 438.94,-19"/>
<text text-anchor="middle" x="405.28" y="-7" font-family="Arial" font-size="10.00" fill="green">files/queries.ts</text>
</g>
<!-- files/services/gitlab&#45;files.service.ts&#45;&gt;files/queries.ts -->
<g id="edge17" class="edge">
<title>files/services/gitlab&#45;files.service.ts&#45;&gt;files/queries.ts</title>
<path fill="none" stroke="green" d="M449.09,-135.15C440.38,-65.48 438.09,-52.32 419.52,-27.52"/>
<polygon fill="green" stroke="green" points="422.11,-25.14 413.21,-19.38 416.57,-29.43 422.11,-25.14"/>
</g>
<!-- files/services/local&#45;files.service.ts&#45;&gt;files/interfaces/files.service.interface.ts -->
<g id="edge19" class="edge">
<title>files/services/local&#45;files.service.ts&#45;&gt;files/interfaces/files.service.interface.ts</title>
<path fill="none" stroke="green" d="M576.3,-300.46C591.51,-242.53 592.32,-233.44 571.7,-193.65"/>
<polygon fill="green" stroke="green" points="574.72,-191.88 566.97,-184.66 568.53,-195.14 574.72,-191.88"/>
</g>
<!-- files/services/local&#45;files.service.ts&#45;&gt;types.ts -->
<g id="edge20" class="edge">
<title>files/services/local&#45;files.service.ts&#45;&gt;types.ts</title>
<path fill="none" stroke="green" d="M582.77,-300.66C618.79,-262.53 625.48,-253.94 630.16,-228.05"/>
<polygon fill="green" stroke="green" points="633.63,-228.52 631.78,-218.09 626.72,-227.4 633.63,-228.52"/>
</g>
<!-- files/interfaces/files.service.interface.ts&#45;&gt;types.ts -->
<g id="edge9" class="edge">
<title>files/interfaces/files.service.interface.ts&#45;&gt;types.ts</title>
<path fill="none" stroke="green" d="M603.24,-184.52C608.59,-186.43 612.59,-188.59 616.46,-191.55"/>
<polygon fill="green" stroke="green" points="614.28,-194.3 624.05,-198.41 618.97,-189.11 614.28,-194.3"/>
</g>
<!-- main.ts -->
<g id="node12" class="node">
<title>main.ts</title>
<path fill="none" stroke="black" d="M47.67,-450.09C47.67,-450.09 6.33,-450.09 6.33,-450.09 3.17,-450.09 0,-446.93 0,-443.76 0,-443.76 0,-437.43 0,-437.43 0,-434.26 3.17,-431.09 6.33,-431.09 6.33,-431.09 47.67,-431.09 47.67,-431.09 50.83,-431.09 54,-434.26 54,-437.43 54,-437.43 54,-443.76 54,-443.76 54,-446.93 50.83,-450.09 47.67,-450.09"/>
<text text-anchor="middle" x="27" y="-438.09" font-family="Arial" font-size="10.00">main.ts</text>
</g>
<!-- main.ts&#45;&gt;bootstrap.ts -->
<g id="edge21" class="edge">
<title>main.ts&#45;&gt;bootstrap.ts</title>
<path fill="none" stroke="green" d="M40.7,-450.3C67.41,-468.85 78.84,-472.83 125.19,-474.72"/>
<polygon fill="green" stroke="green" points="125.16,-478.22 135.28,-475.09 125.41,-471.23 125.16,-478.22"/>
</g>
</g>
</svg>
