<?xml version="1.0" encoding="UTF-8" standalone="no"?>
<!DOCTYPE svg PUBLIC "-//W3C//DTD SVG 1.1//EN"
 "http://www.w3.org/Graphics/SVG/1.1/DTD/svg11.dtd">
<!-- Generated by graphviz version 2.43.0 (0)
 -->
<!-- Title: G Pages: 1 -->
<svg width="1260pt" height="1113pt"
 viewBox="0.00 0.00 1259.58 1112.81" xmlns="http://www.w3.org/2000/svg" xmlns:xlink="http://www.w3.org/1999/xlink">
<g id="graph0" class="graph" transform="scale(1 1) rotate(0) translate(21.6 1091.21)">
<title>G</title>
<polygon fill="#ffffff" stroke="transparent" points="-21.6,21.6 -21.6,-1091.21 1237.98,-1091.21 1237.98,21.6 -21.6,21.6"/>
<!-- AppProvider.tsx -->
<g id="node1" class="node">
<title>AppProvider.tsx</title>
<path fill="none" stroke="black" d="M796.97,-760.25C796.97,-760.25 723.64,-760.25 723.64,-760.25 720.47,-760.25 717.31,-757.08 717.31,-753.92 717.31,-753.92 717.31,-747.58 717.31,-747.58 717.31,-744.42 720.47,-741.25 723.64,-741.25 723.64,-741.25 796.97,-741.25 796.97,-741.25 800.14,-741.25 803.31,-744.42 803.31,-747.58 803.31,-747.58 803.31,-753.92 803.31,-753.92 803.31,-757.08 800.14,-760.25 796.97,-760.25"/>
<text text-anchor="middle" x="760.31" y="-748.25" font-family="Arial" font-size="10.00">AppProvider.tsx</text>
</g>
<!-- route/auth/AuthProvider.tsx -->
<g id="node2" class="node">
<title>route/auth/AuthProvider.tsx</title>
<path fill="none" stroke="black" d="M891.76,-993.12C891.76,-993.12 768.42,-993.12 768.42,-993.12 765.26,-993.12 762.09,-989.96 762.09,-986.79 762.09,-986.79 762.09,-980.46 762.09,-980.46 762.09,-977.29 765.26,-974.12 768.42,-974.12 768.42,-974.12 891.76,-974.12 891.76,-974.12 894.92,-974.12 898.09,-977.29 898.09,-980.46 898.09,-980.46 898.09,-986.79 898.09,-986.79 898.09,-989.96 894.92,-993.12 891.76,-993.12"/>
<text text-anchor="middle" x="830.09" y="-981.12" font-family="Arial" font-size="10.00">route/auth/AuthProvider.tsx</text>
</g>
<!-- AppProvider.tsx&#45;&gt;route/auth/AuthProvider.tsx -->
<g id="edge1" class="edge">
<title>AppProvider.tsx&#45;&gt;route/auth/AuthProvider.tsx</title>
<path fill="none" stroke="green" d="M763.85,-760.32C813.58,-894.81 818.68,-909.34 827.12,-963.95"/>
<polygon fill="green" stroke="green" points="823.67,-964.51 828.63,-973.87 830.59,-963.45 823.67,-964.51"/>
</g>
<!-- store/store.ts -->
<g id="node3" class="node">
<title>store/store.ts</title>
<path fill="none" stroke="black" d="M567.71,-653.43C567.71,-653.43 506.38,-653.43 506.38,-653.43 503.21,-653.43 500.05,-650.26 500.05,-647.09 500.05,-647.09 500.05,-640.76 500.05,-640.76 500.05,-637.59 503.21,-634.43 506.38,-634.43 506.38,-634.43 567.71,-634.43 567.71,-634.43 570.88,-634.43 574.05,-637.59 574.05,-640.76 574.05,-640.76 574.05,-647.09 574.05,-647.09 574.05,-650.26 570.88,-653.43 567.71,-653.43"/>
<text text-anchor="middle" x="537.05" y="-641.43" font-family="Arial" font-size="10.00">store/store.ts</text>
</g>
<!-- AppProvider.tsx&#45;&gt;store/store.ts -->
<g id="edge2" class="edge">
<title>AppProvider.tsx&#45;&gt;store/store.ts</title>
<path fill="none" stroke="green" d="M717.04,-747.95C661.1,-742.81 642.18,-730.02 556.62,-659.98"/>
<polygon fill="green" stroke="green" points="558.64,-657.11 548.69,-653.48 554.2,-662.52 558.64,-657.11"/>
</g>
<!-- util/auth/useOidcConfig.ts -->
<g id="node31" class="node">
<title>util/auth/useOidcConfig.ts</title>
<path fill="none" stroke="black" d="M934.77,-840.45C934.77,-840.45 817.44,-840.45 817.44,-840.45 814.27,-840.45 811.1,-837.29 811.1,-834.12 811.1,-834.12 811.1,-827.79 811.1,-827.79 811.1,-824.62 814.27,-821.45 817.44,-821.45 817.44,-821.45 934.77,-821.45 934.77,-821.45 937.94,-821.45 941.1,-824.62 941.1,-827.79 941.1,-827.79 941.1,-834.12 941.1,-834.12 941.1,-837.29 937.94,-840.45 934.77,-840.45"/>
<text text-anchor="middle" x="876.1" y="-828.45" font-family="Arial" font-size="10.00">util/auth/useOidcConfig.ts</text>
</g>
<!-- route/auth/AuthProvider.tsx&#45;&gt;util/auth/useOidcConfig.ts -->
<g id="edge31" class="edge">
<title>route/auth/AuthProvider.tsx&#45;&gt;util/auth/useOidcConfig.ts</title>
<path fill="none" stroke="green" d="M837.85,-974.08C868.22,-936.45 870.76,-928.05 875.03,-850.78"/>
<polygon fill="green" stroke="green" points="878.54,-850.66 875.59,-840.48 871.56,-850.28 878.54,-850.66"/>
</g>
<!-- store/menu.slice.ts -->
<g id="node26" class="node">
<title>store/menu.slice.ts</title>
<path fill="none" stroke="green" d="M380.5,-538.32C380.5,-538.32 293.17,-538.32 293.17,-538.32 290,-538.32 286.83,-535.15 286.83,-531.99 286.83,-531.99 286.83,-525.65 286.83,-525.65 286.83,-522.49 290,-519.32 293.17,-519.32 293.17,-519.32 380.5,-519.32 380.5,-519.32 383.67,-519.32 386.83,-522.49 386.83,-525.65 386.83,-525.65 386.83,-531.99 386.83,-531.99 386.83,-535.15 383.67,-538.32 380.5,-538.32"/>
<text text-anchor="middle" x="336.83" y="-526.32" font-family="Arial" font-size="10.00" fill="green">store/menu.slice.ts</text>
</g>
<!-- store/store.ts&#45;&gt;store/menu.slice.ts -->
<g id="edge53" class="edge">
<title>store/store.ts&#45;&gt;store/menu.slice.ts</title>
<path fill="none" stroke="green" d="M506.13,-634.42C403.43,-602.68 390.21,-595.49 350.66,-546.25"/>
<polygon fill="green" stroke="green" points="353.31,-543.97 344.34,-538.33 347.84,-548.33 353.31,-543.97"/>
</g>
<!-- store/auth.slice.ts -->
<g id="node35" class="node">
<title>store/auth.slice.ts</title>
<path fill="none" stroke="green" d="M477.78,-418.88C477.78,-418.88 395.45,-418.88 395.45,-418.88 392.28,-418.88 389.12,-415.71 389.12,-412.54 389.12,-412.54 389.12,-406.21 389.12,-406.21 389.12,-403.04 392.28,-399.88 395.45,-399.88 395.45,-399.88 477.78,-399.88 477.78,-399.88 480.95,-399.88 484.12,-403.04 484.12,-406.21 484.12,-406.21 484.12,-412.54 484.12,-412.54 484.12,-415.71 480.95,-418.88 477.78,-418.88"/>
<text text-anchor="middle" x="436.62" y="-406.88" font-family="Arial" font-size="10.00" fill="green">store/auth.slice.ts</text>
</g>
<!-- store/store.ts&#45;&gt;store/auth.slice.ts -->
<g id="edge52" class="edge">
<title>store/store.ts&#45;&gt;store/auth.slice.ts</title>
<path fill="none" stroke="green" d="M528.98,-634.29C441.82,-530.19 436.31,-520.94 436.52,-429.2"/>
<polygon fill="green" stroke="green" points="440.02,-429.16 436.56,-419.14 433.02,-429.13 440.02,-429.16"/>
</g>
<!-- components/Iframe.tsx -->
<g id="node4" class="node">
<title>components/Iframe.tsx</title>
<path fill="none" stroke="green" d="M1041.61,-321.32C1041.61,-321.32 937.28,-321.32 937.28,-321.32 934.11,-321.32 930.95,-318.15 930.95,-314.99 930.95,-314.99 930.95,-308.65 930.95,-308.65 930.95,-305.49 934.11,-302.32 937.28,-302.32 937.28,-302.32 1041.61,-302.32 1041.61,-302.32 1044.78,-302.32 1047.95,-305.49 1047.95,-308.65 1047.95,-308.65 1047.95,-314.99 1047.95,-314.99 1047.95,-318.15 1044.78,-321.32 1041.61,-321.32"/>
<text text-anchor="middle" x="989.45" y="-309.32" font-family="Arial" font-size="10.00" fill="green">components/Iframe.tsx</text>
</g>
<!-- components/LinkButtons.tsx -->
<g id="node5" class="node">
<title>components/LinkButtons.tsx</title>
<path fill="none" stroke="black" d="M741.04,-854.19C741.04,-854.19 612.71,-854.19 612.71,-854.19 609.54,-854.19 606.37,-851.02 606.37,-847.85 606.37,-847.85 606.37,-841.52 606.37,-841.52 606.37,-838.35 609.54,-835.19 612.71,-835.19 612.71,-835.19 741.04,-835.19 741.04,-835.19 744.21,-835.19 747.37,-838.35 747.37,-841.52 747.37,-841.52 747.37,-847.85 747.37,-847.85 747.37,-851.02 744.21,-854.19 741.04,-854.19"/>
<text text-anchor="middle" x="676.87" y="-842.19" font-family="Arial" font-size="10.00">components/LinkButtons.tsx</text>
</g>
<!-- components/LinkIconsLib.tsx -->
<g id="node6" class="node">
<title>components/LinkIconsLib.tsx</title>
<path fill="none" stroke="green" d="M698.07,-1069.61C698.07,-1069.61 566.74,-1069.61 566.74,-1069.61 563.57,-1069.61 560.41,-1066.44 560.41,-1063.27 560.41,-1063.27 560.41,-1056.94 560.41,-1056.94 560.41,-1053.77 563.57,-1050.61 566.74,-1050.61 566.74,-1050.61 698.07,-1050.61 698.07,-1050.61 701.24,-1050.61 704.41,-1053.77 704.41,-1056.94 704.41,-1056.94 704.41,-1063.27 704.41,-1063.27 704.41,-1066.44 701.24,-1069.61 698.07,-1069.61"/>
<text text-anchor="middle" x="632.41" y="-1057.61" font-family="Arial" font-size="10.00" fill="green">components/LinkIconsLib.tsx</text>
</g>
<!-- components/LinkButtons.tsx&#45;&gt;components/LinkIconsLib.tsx -->
<g id="edge3" class="edge">
<title>components/LinkButtons.tsx&#45;&gt;components/LinkIconsLib.tsx</title>
<path fill="none" stroke="green" d="M675.78,-854.24C661.31,-980.27 659.25,-995.43 640.39,-1041.1"/>
<polygon fill="green" stroke="green" points="637.15,-1039.77 636.53,-1050.35 643.61,-1042.47 637.15,-1039.77"/>
</g>
<!-- util/envUtil.ts -->
<g id="node7" class="node">
<title>util/envUtil.ts</title>
<path fill="none" stroke="black" d="M768.33,-606.85C768.33,-606.85 707,-606.85 707,-606.85 703.83,-606.85 700.66,-603.69 700.66,-600.52 700.66,-600.52 700.66,-594.19 700.66,-594.19 700.66,-591.02 703.83,-587.85 707,-587.85 707,-587.85 768.33,-587.85 768.33,-587.85 771.5,-587.85 774.66,-591.02 774.66,-594.19 774.66,-594.19 774.66,-600.52 774.66,-600.52 774.66,-603.69 771.5,-606.85 768.33,-606.85"/>
<text text-anchor="middle" x="737.66" y="-594.85" font-family="Arial" font-size="10.00">util/envUtil.ts</text>
</g>
<!-- components/LinkButtons.tsx&#45;&gt;util/envUtil.ts -->
<g id="edge4" class="edge">
<title>components/LinkButtons.tsx&#45;&gt;util/envUtil.ts</title>
<path fill="none" stroke="green" d="M683.58,-834.96C729.18,-768.62 731.36,-759.45 736.9,-617.11"/>
<polygon fill="green" stroke="green" points="740.4,-617.22 737.29,-607.09 733.41,-616.95 740.4,-617.22"/>
</g>
<!-- util/envUtil.ts&#45;&gt;store/store.ts -->
<g id="edge57" class="edge">
<title>util/envUtil.ts&#45;&gt;store/store.ts</title>
<path fill="none" stroke="green" d="M724.13,-607.02C663.07,-650.48 648.47,-657.46 584.6,-650.18"/>
<polygon fill="green" stroke="green" points="584.7,-646.67 574.36,-648.95 583.87,-653.62 584.7,-646.67"/>
</g>
<!-- components/tab/TabComponent.tsx -->
<g id="node8" class="node">
<title>components/tab/TabComponent.tsx</title>
<path fill="none" stroke="black" d="M1077.56,-214.33C1077.56,-214.33 918.23,-214.33 918.23,-214.33 915.06,-214.33 911.9,-211.17 911.9,-208 911.9,-208 911.9,-201.67 911.9,-201.67 911.9,-198.5 915.06,-195.33 918.23,-195.33 918.23,-195.33 1077.56,-195.33 1077.56,-195.33 1080.73,-195.33 1083.9,-198.5 1083.9,-201.67 1083.9,-201.67 1083.9,-208 1083.9,-208 1083.9,-211.17 1080.73,-214.33 1077.56,-214.33"/>
<text text-anchor="middle" x="997.9" y="-202.33" font-family="Arial" font-size="10.00">components/tab/TabComponent.tsx</text>
</g>
<!-- components/tab/subcomponents/TabRender.tsx -->
<g id="node9" class="node">
<title>components/tab/subcomponents/TabRender.tsx</title>
<path fill="none" stroke="green" d="M897.47,-239.58C897.47,-239.58 685.14,-239.58 685.14,-239.58 681.97,-239.58 678.81,-236.41 678.81,-233.25 678.81,-233.25 678.81,-226.91 678.81,-226.91 678.81,-223.75 681.97,-220.58 685.14,-220.58 685.14,-220.58 897.47,-220.58 897.47,-220.58 900.64,-220.58 903.81,-223.75 903.81,-226.91 903.81,-226.91 903.81,-233.25 903.81,-233.25 903.81,-236.41 900.64,-239.58 897.47,-239.58"/>
<text text-anchor="middle" x="791.31" y="-227.58" font-family="Arial" font-size="10.00" fill="green">components/tab/subcomponents/TabRender.tsx</text>
</g>
<!-- components/tab/TabComponent.tsx&#45;&gt;components/tab/subcomponents/TabRender.tsx -->
<g id="edge5" class="edge">
<title>components/tab/TabComponent.tsx&#45;&gt;components/tab/subcomponents/TabRender.tsx</title>
<path fill="none" stroke="green" d="M954.64,-195.32C920.88,-189.85 898.75,-194.82 829.72,-217.39"/>
<polygon fill="green" stroke="green" points="828.54,-214.09 820.13,-220.54 830.72,-220.75 828.54,-214.09"/>
</g>
<!-- components/tab/subcomponents/TabStyles.ts -->
<g id="node10" class="node">
<title>components/tab/subcomponents/TabStyles.ts</title>
<path fill="none" stroke="green" d="M1116.45,-22.56C1116.45,-22.56 913.11,-22.56 913.11,-22.56 909.95,-22.56 906.78,-19.39 906.78,-16.23 906.78,-16.23 906.78,-9.89 906.78,-9.89 906.78,-6.73 909.95,-3.56 913.11,-3.56 913.11,-3.56 1116.45,-3.56 1116.45,-3.56 1119.61,-3.56 1122.78,-6.73 1122.78,-9.89 1122.78,-9.89 1122.78,-16.23 1122.78,-16.23 1122.78,-19.39 1119.61,-22.56 1116.45,-22.56"/>
<text text-anchor="middle" x="1014.78" y="-10.56" font-family="Arial" font-size="10.00" fill="green">components/tab/subcomponents/TabStyles.ts</text>
</g>
<!-- components/tab/TabComponent.tsx&#45;&gt;components/tab/subcomponents/TabStyles.ts -->
<g id="edge6" class="edge">
<title>components/tab/TabComponent.tsx&#45;&gt;components/tab/subcomponents/TabStyles.ts</title>
<path fill="none" stroke="green" d="M1000.57,-195.28C1029.15,-93.17 1031.88,-80.73 1019.81,-32.45"/>
<polygon fill="green" stroke="green" points="1023.17,-31.46 1017.29,-22.64 1016.39,-33.19 1023.17,-31.46"/>
</g>
<!-- index.tsx -->
<g id="node11" class="node">
<title>index.tsx</title>
<path fill="none" stroke="black" d="M941.29,-574.69C941.29,-574.69 897.95,-574.69 897.95,-574.69 894.79,-574.69 891.62,-571.52 891.62,-568.35 891.62,-568.35 891.62,-562.02 891.62,-562.02 891.62,-558.85 894.79,-555.69 897.95,-555.69 897.95,-555.69 941.29,-555.69 941.29,-555.69 944.45,-555.69 947.62,-558.85 947.62,-562.02 947.62,-562.02 947.62,-568.35 947.62,-568.35 947.62,-571.52 944.45,-574.69 941.29,-574.69"/>
<text text-anchor="middle" x="919.62" y="-562.69" font-family="Arial" font-size="10.00">index.tsx</text>
</g>
<!-- index.tsx&#45;&gt;AppProvider.tsx -->
<g id="edge7" class="edge">
<title>index.tsx&#45;&gt;AppProvider.tsx</title>
<path fill="none" stroke="green" d="M916.61,-574.74C885.66,-672.73 880.39,-681.97 786.08,-736.06"/>
<polygon fill="green" stroke="green" points="784.24,-733.08 777.3,-741.08 787.72,-739.16 784.24,-733.08"/>
</g>
<!-- index.tsx&#45;&gt;util/envUtil.ts -->
<g id="edge15" class="edge">
<title>index.tsx&#45;&gt;util/envUtil.ts</title>
<path fill="none" stroke="green" d="M896.75,-574.88C867.52,-586.69 850.77,-589.48 784.81,-594.16"/>
<polygon fill="green" stroke="green" points="784.45,-590.67 774.72,-594.86 784.94,-597.66 784.45,-590.67"/>
</g>
<!-- page/LayoutPublic.tsx -->
<g id="node12" class="node">
<title>page/LayoutPublic.tsx</title>
<path fill="none" stroke="black" d="M1167.64,-671.78C1167.64,-671.78 1067.3,-671.78 1067.3,-671.78 1064.14,-671.78 1060.97,-668.61 1060.97,-665.45 1060.97,-665.45 1060.97,-659.11 1060.97,-659.11 1060.97,-655.95 1064.14,-652.78 1067.3,-652.78 1067.3,-652.78 1167.64,-652.78 1167.64,-652.78 1170.8,-652.78 1173.97,-655.95 1173.97,-659.11 1173.97,-659.11 1173.97,-665.45 1173.97,-665.45 1173.97,-668.61 1170.8,-671.78 1167.64,-671.78"/>
<text text-anchor="middle" x="1117.47" y="-659.78" font-family="Arial" font-size="10.00">page/LayoutPublic.tsx</text>
</g>
<!-- index.tsx&#45;&gt;page/LayoutPublic.tsx -->
<g id="edge8" class="edge">
<title>index.tsx&#45;&gt;page/LayoutPublic.tsx</title>
<path fill="none" stroke="green" d="M943.56,-574.76C1043.59,-614.82 1061.38,-622.66 1095.99,-646.9"/>
<polygon fill="green" stroke="green" points="1093.99,-649.77 1104.18,-652.7 1098.04,-644.06 1093.99,-649.77"/>
</g>
<!-- route/auth/Account.tsx -->
<g id="node13" class="node">
<title>route/auth/Account.tsx</title>
<path fill="none" stroke="black" d="M1053.37,-447.82C1053.37,-447.82 950.04,-447.82 950.04,-447.82 946.87,-447.82 943.71,-444.65 943.71,-441.49 943.71,-441.49 943.71,-435.15 943.71,-435.15 943.71,-431.99 946.87,-428.82 950.04,-428.82 950.04,-428.82 1053.37,-428.82 1053.37,-428.82 1056.54,-428.82 1059.71,-431.99 1059.71,-435.15 1059.71,-435.15 1059.71,-441.49 1059.71,-441.49 1059.71,-444.65 1056.54,-447.82 1053.37,-447.82"/>
<text text-anchor="middle" x="1001.71" y="-435.82" font-family="Arial" font-size="10.00">route/auth/Account.tsx</text>
</g>
<!-- index.tsx&#45;&gt;route/auth/Account.tsx -->
<g id="edge9" class="edge">
<title>index.tsx&#45;&gt;route/auth/Account.tsx</title>
<path fill="none" stroke="green" d="M929.92,-555.59C983.07,-505.97 990.21,-497.46 998.09,-457.77"/>
<polygon fill="green" stroke="green" points="1001.54,-458.37 999.97,-447.89 994.66,-457.06 1001.54,-458.37"/>
</g>
<!-- route/auth/PrivateRoute.tsx -->
<g id="node14" class="node">
<title>route/auth/PrivateRoute.tsx</title>
<path fill="none" stroke="black" d="M1018.63,-770.37C1018.63,-770.37 894.29,-770.37 894.29,-770.37 891.13,-770.37 887.96,-767.2 887.96,-764.04 887.96,-764.04 887.96,-757.7 887.96,-757.7 887.96,-754.54 891.13,-751.37 894.29,-751.37 894.29,-751.37 1018.63,-751.37 1018.63,-751.37 1021.79,-751.37 1024.96,-754.54 1024.96,-757.7 1024.96,-757.7 1024.96,-764.04 1024.96,-764.04 1024.96,-767.2 1021.79,-770.37 1018.63,-770.37"/>
<text text-anchor="middle" x="956.46" y="-758.37" font-family="Arial" font-size="10.00">route/auth/PrivateRoute.tsx</text>
</g>
<!-- index.tsx&#45;&gt;route/auth/PrivateRoute.tsx -->
<g id="edge10" class="edge">
<title>index.tsx&#45;&gt;route/auth/PrivateRoute.tsx</title>
<path fill="none" stroke="green" d="M924.36,-574.77C970.68,-668.5 974.31,-678.71 960.81,-741.23"/>
<polygon fill="green" stroke="green" points="957.33,-740.77 958.6,-751.29 964.17,-742.27 957.33,-740.77"/>
</g>
<!-- route/auth/Signin.tsx -->
<g id="node15" class="node">
<title>route/auth/Signin.tsx</title>
<path fill="none" stroke="green" d="M1210.05,-559.22C1210.05,-559.22 1115.72,-559.22 1115.72,-559.22 1112.55,-559.22 1109.38,-556.05 1109.38,-552.89 1109.38,-552.89 1109.38,-546.55 1109.38,-546.55 1109.38,-543.39 1112.55,-540.22 1115.72,-540.22 1115.72,-540.22 1210.05,-540.22 1210.05,-540.22 1213.22,-540.22 1216.38,-543.39 1216.38,-546.55 1216.38,-546.55 1216.38,-552.89 1216.38,-552.89 1216.38,-556.05 1213.22,-559.22 1210.05,-559.22"/>
<text text-anchor="middle" x="1162.88" y="-547.22" font-family="Arial" font-size="10.00" fill="green">route/auth/Signin.tsx</text>
</g>
<!-- index.tsx&#45;&gt;route/auth/Signin.tsx -->
<g id="edge11" class="edge">
<title>index.tsx&#45;&gt;route/auth/Signin.tsx</title>
<path fill="none" stroke="green" d="M947.85,-564.32C1034.02,-561.68 1069.5,-560.44 1099.32,-557.71"/>
<polygon fill="green" stroke="green" points="1099.67,-561.2 1109.28,-556.73 1098.98,-554.23 1099.67,-561.2"/>
</g>
<!-- route/digitaltwins/DigitalTwins.tsx -->
<g id="node16" class="node">
<title>route/digitaltwins/DigitalTwins.tsx</title>
<path fill="none" stroke="black" d="M942.4,-394.65C942.4,-394.65 792.06,-394.65 792.06,-394.65 788.9,-394.65 785.73,-391.48 785.73,-388.31 785.73,-388.31 785.73,-381.98 785.73,-381.98 785.73,-378.81 788.9,-375.65 792.06,-375.65 792.06,-375.65 942.4,-375.65 942.4,-375.65 945.56,-375.65 948.73,-378.81 948.73,-381.98 948.73,-381.98 948.73,-388.31 948.73,-388.31 948.73,-391.48 945.56,-394.65 942.4,-394.65"/>
<text text-anchor="middle" x="867.23" y="-382.65" font-family="Arial" font-size="10.00">route/digitaltwins/DigitalTwins.tsx</text>
</g>
<!-- index.tsx&#45;&gt;route/digitaltwins/DigitalTwins.tsx -->
<g id="edge12" class="edge">
<title>index.tsx&#45;&gt;route/digitaltwins/DigitalTwins.tsx</title>
<path fill="none" stroke="green" d="M920.66,-555.5C929.29,-474.64 928.25,-465.7 881.05,-403.3"/>
<polygon fill="green" stroke="green" points="883.58,-400.83 874.74,-394.99 878,-405.07 883.58,-400.83"/>
</g>
<!-- route/library/Library.tsx -->
<g id="node17" class="node">
<title>route/library/Library.tsx</title>
<path fill="none" stroke="black" d="M770.98,-405.66C770.98,-405.66 667.65,-405.66 667.65,-405.66 664.48,-405.66 661.32,-402.5 661.32,-399.33 661.32,-399.33 661.32,-393 661.32,-393 661.32,-389.83 664.48,-386.66 667.65,-386.66 667.65,-386.66 770.98,-386.66 770.98,-386.66 774.15,-386.66 777.32,-389.83 777.32,-393 777.32,-393 777.32,-399.33 777.32,-399.33 777.32,-402.5 774.15,-405.66 770.98,-405.66"/>
<text text-anchor="middle" x="719.32" y="-393.66" font-family="Arial" font-size="10.00">route/library/Library.tsx</text>
</g>
<!-- index.tsx&#45;&gt;route/library/Library.tsx -->
<g id="edge13" class="edge">
<title>index.tsx&#45;&gt;route/library/Library.tsx</title>
<path fill="none" stroke="green" d="M914.72,-555.52C873.33,-474 866.03,-466.02 749.05,-410.28"/>
<polygon fill="green" stroke="green" points="750.22,-406.96 739.68,-405.82 747.21,-413.28 750.22,-406.96"/>
</g>
<!-- route/workbench/Workbench.tsx -->
<g id="node18" class="node">
<title>route/workbench/Workbench.tsx</title>
<path fill="none" stroke="black" d="M885.25,-709.01C885.25,-709.01 740.91,-709.01 740.91,-709.01 737.75,-709.01 734.58,-705.85 734.58,-702.68 734.58,-702.68 734.58,-696.35 734.58,-696.35 734.58,-693.18 737.75,-690.01 740.91,-690.01 740.91,-690.01 885.25,-690.01 885.25,-690.01 888.41,-690.01 891.58,-693.18 891.58,-696.35 891.58,-696.35 891.58,-702.68 891.58,-702.68 891.58,-705.85 888.41,-709.01 885.25,-709.01"/>
<text text-anchor="middle" x="813.08" y="-697.01" font-family="Arial" font-size="10.00">route/workbench/Workbench.tsx</text>
</g>
<!-- index.tsx&#45;&gt;route/workbench/Workbench.tsx -->
<g id="edge14" class="edge">
<title>index.tsx&#45;&gt;route/workbench/Workbench.tsx</title>
<path fill="none" stroke="green" d="M917,-574.98C900.26,-637.16 895.68,-645.59 836.63,-684.26"/>
<polygon fill="green" stroke="green" points="834.39,-681.53 827.92,-689.92 838.21,-687.4 834.39,-681.53"/>
</g>
<!-- page/Footer.tsx -->
<g id="node23" class="node">
<title>page/Footer.tsx</title>
<path fill="none" stroke="green" d="M1025.52,-637.95C1025.52,-637.95 953.18,-637.95 953.18,-637.95 950.02,-637.95 946.85,-634.79 946.85,-631.62 946.85,-631.62 946.85,-625.29 946.85,-625.29 946.85,-622.12 950.02,-618.95 953.18,-618.95 953.18,-618.95 1025.52,-618.95 1025.52,-618.95 1028.68,-618.95 1031.85,-622.12 1031.85,-625.29 1031.85,-625.29 1031.85,-631.62 1031.85,-631.62 1031.85,-634.79 1028.68,-637.95 1025.52,-637.95"/>
<text text-anchor="middle" x="989.35" y="-625.95" font-family="Arial" font-size="10.00" fill="green">page/Footer.tsx</text>
</g>
<!-- page/LayoutPublic.tsx&#45;&gt;page/Footer.tsx -->
<g id="edge21" class="edge">
<title>page/LayoutPublic.tsx&#45;&gt;page/Footer.tsx</title>
<path fill="none" stroke="green" d="M1082.46,-652.75C1071.41,-649.8 1058.53,-646.42 1035.9,-640.54"/>
<polygon fill="green" stroke="green" points="1036.53,-637.09 1025.98,-637.96 1034.77,-643.86 1036.53,-637.09"/>
</g>
<!-- page/Layout.tsx -->
<g id="node24" class="node">
<title>page/Layout.tsx</title>
<path fill="none" stroke="black" d="M768.05,-515.29C768.05,-515.29 694.72,-515.29 694.72,-515.29 691.55,-515.29 688.38,-512.12 688.38,-508.95 688.38,-508.95 688.38,-502.62 688.38,-502.62 688.38,-499.45 691.55,-496.29 694.72,-496.29 694.72,-496.29 768.05,-496.29 768.05,-496.29 771.22,-496.29 774.38,-499.45 774.38,-502.62 774.38,-502.62 774.38,-508.95 774.38,-508.95 774.38,-512.12 771.22,-515.29 768.05,-515.29"/>
<text text-anchor="middle" x="731.38" y="-503.29" font-family="Arial" font-size="10.00">page/Layout.tsx</text>
</g>
<!-- route/auth/Account.tsx&#45;&gt;page/Layout.tsx -->
<g id="edge27" class="edge">
<title>route/auth/Account.tsx&#45;&gt;page/Layout.tsx</title>
<path fill="none" stroke="green" d="M963.96,-447.9C920.08,-459.02 892.99,-465.76 779.56,-493.86"/>
<polygon fill="green" stroke="green" points="778.65,-490.48 769.79,-496.28 780.33,-497.27 778.65,-490.48"/>
</g>
<!-- route/auth/AccountTabs.tsx -->
<g id="node30" class="node">
<title>route/auth/AccountTabs.tsx</title>
<path fill="none" stroke="black" d="M1173.39,-253.23C1173.39,-253.23 1049.05,-253.23 1049.05,-253.23 1045.89,-253.23 1042.72,-250.07 1042.72,-246.9 1042.72,-246.9 1042.72,-240.57 1042.72,-240.57 1042.72,-237.4 1045.89,-234.23 1049.05,-234.23 1049.05,-234.23 1173.39,-234.23 1173.39,-234.23 1176.55,-234.23 1179.72,-237.4 1179.72,-240.57 1179.72,-240.57 1179.72,-246.9 1179.72,-246.9 1179.72,-250.07 1176.55,-253.23 1173.39,-253.23"/>
<text text-anchor="middle" x="1111.22" y="-241.23" font-family="Arial" font-size="10.00">route/auth/AccountTabs.tsx</text>
</g>
<!-- route/auth/Account.tsx&#45;&gt;route/auth/AccountTabs.tsx -->
<g id="edge28" class="edge">
<title>route/auth/Account.tsx&#45;&gt;route/auth/AccountTabs.tsx</title>
<path fill="none" stroke="green" d="M1009.88,-428.5C1089.45,-332.88 1097.06,-322.25 1107.8,-263.2"/>
<polygon fill="green" stroke="green" points="1111.26,-263.75 1109.56,-253.29 1104.37,-262.52 1111.26,-263.75"/>
</g>
<!-- route/auth/WaitAndNavigate.tsx -->
<g id="node32" class="node">
<title>route/auth/WaitAndNavigate.tsx</title>
<path fill="none" stroke="black" d="M702.9,-772.6C702.9,-772.6 560.57,-772.6 560.57,-772.6 557.4,-772.6 554.24,-769.44 554.24,-766.27 554.24,-766.27 554.24,-759.94 554.24,-759.94 554.24,-756.77 557.4,-753.6 560.57,-753.6 560.57,-753.6 702.9,-753.6 702.9,-753.6 706.07,-753.6 709.24,-756.77 709.24,-759.94 709.24,-759.94 709.24,-766.27 709.24,-766.27 709.24,-769.44 706.07,-772.6 702.9,-772.6"/>
<text text-anchor="middle" x="631.74" y="-760.6" font-family="Arial" font-size="10.00">route/auth/WaitAndNavigate.tsx</text>
</g>
<!-- route/auth/PrivateRoute.tsx&#45;&gt;route/auth/WaitAndNavigate.tsx -->
<g id="edge32" class="edge">
<title>route/auth/PrivateRoute.tsx&#45;&gt;route/auth/WaitAndNavigate.tsx</title>
<path fill="none" stroke="green" d="M933.82,-770.43C843.78,-808.08 824.9,-809.16 681.31,-775.02"/>
<polygon fill="green" stroke="green" points="681.75,-771.53 671.21,-772.61 680.13,-778.34 681.75,-771.53"/>
</g>
<!-- route/digitaltwins/DigitalTwins.tsx&#45;&gt;components/Iframe.tsx -->
<g id="edge35" class="edge">
<title>route/digitaltwins/DigitalTwins.tsx&#45;&gt;components/Iframe.tsx</title>
<path fill="none" stroke="green" d="M883.21,-375.64C932.74,-346.18 948.32,-336.89 965.3,-326.57"/>
<polygon fill="green" stroke="green" points="967.18,-329.53 973.9,-321.33 963.54,-323.55 967.18,-329.53"/>
</g>
<!-- route/digitaltwins/DigitalTwins.tsx&#45;&gt;util/envUtil.ts -->
<g id="edge40" class="edge">
<title>route/digitaltwins/DigitalTwins.tsx&#45;&gt;util/envUtil.ts</title>
<path fill="none" stroke="green" d="M865.57,-394.85C851.61,-475.98 847.42,-483.83 754.17,-580.3"/>
<polygon fill="green" stroke="green" points="751.44,-578.09 747,-587.71 756.47,-582.96 751.44,-578.09"/>
</g>
<!-- route/digitaltwins/DigitalTwins.tsx&#45;&gt;components/tab/TabComponent.tsx -->
<g id="edge36" class="edge">
<title>route/digitaltwins/DigitalTwins.tsx&#45;&gt;components/tab/TabComponent.tsx</title>
<path fill="none" stroke="green" d="M875.58,-375.51C958.01,-280.44 967.88,-268.42 989.14,-223.58"/>
<polygon fill="green" stroke="green" points="992.34,-225.01 993.42,-214.47 986,-222.04 992.34,-225.01"/>
</g>
<!-- route/digitaltwins/DigitalTwins.tsx&#45;&gt;components/tab/subcomponents/TabRender.tsx -->
<g id="edge37" class="edge">
<title>route/digitaltwins/DigitalTwins.tsx&#45;&gt;components/tab/subcomponents/TabRender.tsx</title>
<path fill="none" stroke="green" d="M865.93,-375.57C854.77,-293.71 851.95,-282.81 810.17,-246.26"/>
<polygon fill="green" stroke="green" points="812.37,-243.54 802.52,-239.64 807.79,-248.83 812.37,-243.54"/>
</g>
<!-- route/digitaltwins/DigitalTwins.tsx&#45;&gt;page/Layout.tsx -->
<g id="edge38" class="edge">
<title>route/digitaltwins/DigitalTwins.tsx&#45;&gt;page/Layout.tsx</title>
<path fill="none" stroke="green" d="M859.6,-394.91C833.91,-427.61 825.68,-434.89 752.65,-489.82"/>
<polygon fill="green" stroke="green" points="750.29,-487.21 744.4,-496.01 754.5,-492.8 750.29,-487.21"/>
</g>
<!-- route/digitaltwins/DigitalTwinTabData.ts -->
<g id="node33" class="node">
<title>route/digitaltwins/DigitalTwinTabData.ts</title>
<path fill="none" stroke="black" d="M672.67,-212.58C672.67,-212.58 496.34,-212.58 496.34,-212.58 493.17,-212.58 490,-209.41 490,-206.24 490,-206.24 490,-199.91 490,-199.91 490,-196.74 493.17,-193.58 496.34,-193.58 496.34,-193.58 672.67,-193.58 672.67,-193.58 675.84,-193.58 679,-196.74 679,-199.91 679,-199.91 679,-206.24 679,-206.24 679,-209.41 675.84,-212.58 672.67,-212.58"/>
<text text-anchor="middle" x="584.5" y="-200.58" font-family="Arial" font-size="10.00">route/digitaltwins/DigitalTwinTabData.ts</text>
</g>
<!-- route/digitaltwins/DigitalTwins.tsx&#45;&gt;route/digitaltwins/DigitalTwinTabData.ts -->
<g id="edge39" class="edge">
<title>route/digitaltwins/DigitalTwins.tsx&#45;&gt;route/digitaltwins/DigitalTwinTabData.ts</title>
<path fill="none" stroke="green" d="M860.18,-375.59C770.23,-253.84 754.8,-236.07 646.64,-214.56"/>
<polygon fill="green" stroke="green" points="647.08,-211.08 636.59,-212.6 645.74,-217.95 647.08,-211.08"/>
</g>
<!-- route/library/Library.tsx&#45;&gt;components/Iframe.tsx -->
<g id="edge41" class="edge">
<title>route/library/Library.tsx&#45;&gt;components/Iframe.tsx</title>
<path fill="none" stroke="green" d="M742.11,-386.62C845.83,-343.21 883.11,-328.13 920.64,-320.55"/>
<polygon fill="green" stroke="green" points="921.56,-323.94 930.76,-318.69 920.29,-317.06 921.56,-323.94"/>
</g>
<!-- route/library/Library.tsx&#45;&gt;util/envUtil.ts -->
<g id="edge47" class="edge">
<title>route/library/Library.tsx&#45;&gt;util/envUtil.ts</title>
<path fill="none" stroke="green" d="M724.69,-406.13C764.29,-479.76 765.83,-488.15 742.7,-577.95"/>
<polygon fill="green" stroke="green" points="739.27,-577.23 740.15,-587.79 746.04,-578.99 739.27,-577.23"/>
</g>
<!-- route/library/Library.tsx&#45;&gt;components/tab/TabComponent.tsx -->
<g id="edge42" class="edge">
<title>route/library/Library.tsx&#45;&gt;components/tab/TabComponent.tsx</title>
<path fill="none" stroke="green" d="M732.01,-386.62C888.6,-268.88 907.47,-255.02 971.61,-219.34"/>
<polygon fill="green" stroke="green" points="973.49,-222.3 980.54,-214.39 970.1,-216.18 973.49,-222.3"/>
</g>
<!-- route/library/Library.tsx&#45;&gt;components/tab/subcomponents/TabRender.tsx -->
<g id="edge43" class="edge">
<title>route/library/Library.tsx&#45;&gt;components/tab/subcomponents/TabRender.tsx</title>
<path fill="none" stroke="green" d="M724.1,-386.5C768.02,-297.72 774.63,-283.93 785.39,-249.49"/>
<polygon fill="green" stroke="green" points="788.8,-250.28 788.4,-239.69 782.11,-248.22 788.8,-250.28"/>
</g>
<!-- route/library/Library.tsx&#45;&gt;page/Layout.tsx -->
<g id="edge44" class="edge">
<title>route/library/Library.tsx&#45;&gt;page/Layout.tsx</title>
<path fill="none" stroke="green" d="M724.74,-405.71C741.04,-434.73 742.25,-442.11 734.8,-486.13"/>
<polygon fill="green" stroke="green" points="731.33,-485.65 733.08,-496.1 738.23,-486.84 731.33,-485.65"/>
</g>
<!-- util/auth/Authentication.ts -->
<g id="node27" class="node">
<title>util/auth/Authentication.ts</title>
<path fill="none" stroke="black" d="M645.14,-527.95C645.14,-527.95 529.8,-527.95 529.8,-527.95 526.64,-527.95 523.47,-524.78 523.47,-521.62 523.47,-521.62 523.47,-515.28 523.47,-515.28 523.47,-512.12 526.64,-508.95 529.8,-508.95 529.8,-508.95 645.14,-508.95 645.14,-508.95 648.3,-508.95 651.47,-512.12 651.47,-515.28 651.47,-515.28 651.47,-521.62 651.47,-521.62 651.47,-524.78 648.3,-527.95 645.14,-527.95"/>
<text text-anchor="middle" x="587.47" y="-515.95" font-family="Arial" font-size="10.00">util/auth/Authentication.ts</text>
</g>
<!-- route/library/Library.tsx&#45;&gt;util/auth/Authentication.ts -->
<g id="edge46" class="edge">
<title>route/library/Library.tsx&#45;&gt;util/auth/Authentication.ts</title>
<path fill="none" stroke="green" d="M704.27,-405.7C672.89,-425.88 663.11,-435.55 603.04,-501.37"/>
<polygon fill="green" stroke="green" points="600.43,-499.04 596.27,-508.79 605.6,-503.76 600.43,-499.04"/>
</g>
<!-- route/library/LibraryTabData.ts -->
<g id="node34" class="node">
<title>route/library/LibraryTabData.ts</title>
<path fill="none" stroke="black" d="M723.63,-185.56C723.63,-185.56 588.3,-185.56 588.3,-185.56 585.13,-185.56 581.96,-182.39 581.96,-179.23 581.96,-179.23 581.96,-172.89 581.96,-172.89 581.96,-169.73 585.13,-166.56 588.3,-166.56 588.3,-166.56 723.63,-166.56 723.63,-166.56 726.8,-166.56 729.96,-169.73 729.96,-172.89 729.96,-172.89 729.96,-179.23 729.96,-179.23 729.96,-182.39 726.8,-185.56 723.63,-185.56"/>
<text text-anchor="middle" x="655.96" y="-173.56" font-family="Arial" font-size="10.00">route/library/LibraryTabData.ts</text>
</g>
<!-- route/library/Library.tsx&#45;&gt;route/library/LibraryTabData.ts -->
<g id="edge45" class="edge">
<title>route/library/Library.tsx&#45;&gt;route/library/LibraryTabData.ts</title>
<path fill="none" stroke="green" d="M718.2,-386.47C703.27,-257.24 700.96,-242.84 668.4,-194.29"/>
<polygon fill="green" stroke="green" points="671.18,-192.16 662.67,-185.84 665.38,-196.08 671.18,-192.16"/>
</g>
<!-- route/workbench/Workbench.tsx&#45;&gt;components/LinkButtons.tsx -->
<g id="edge49" class="edge">
<title>route/workbench/Workbench.tsx&#45;&gt;components/LinkButtons.tsx</title>
<path fill="none" stroke="green" d="M808.7,-709.24C770.91,-793.02 763.66,-805.58 708.11,-830.95"/>
<polygon fill="green" stroke="green" points="706.46,-827.85 698.77,-835.14 709.33,-834.24 706.46,-827.85"/>
</g>
<!-- route/workbench/Workbench.tsx&#45;&gt;util/envUtil.ts -->
<g id="edge51" class="edge">
<title>route/workbench/Workbench.tsx&#45;&gt;util/envUtil.ts</title>
<path fill="none" stroke="green" d="M808.59,-689.69C797.17,-665.02 791.83,-657.8 753.02,-614.46"/>
<polygon fill="green" stroke="green" points="755.5,-611.98 746.22,-606.88 750.29,-616.66 755.5,-611.98"/>
</g>
<!-- route/workbench/Workbench.tsx&#45;&gt;page/Layout.tsx -->
<g id="edge50" class="edge">
<title>route/workbench/Workbench.tsx&#45;&gt;page/Layout.tsx</title>
<path fill="none" stroke="green" d="M812.84,-689.97C811.06,-622.66 808.18,-614.83 743.9,-523.54"/>
<polygon fill="green" stroke="green" points="746.75,-521.5 738.12,-515.34 741.02,-525.53 746.75,-521.5"/>
</g>
<!-- page/DrawerComponent.tsx -->
<g id="node19" class="node">
<title>page/DrawerComponent.tsx</title>
<path fill="none" stroke="black" d="M300,-635.17C300,-635.17 173.66,-635.17 173.66,-635.17 170.5,-635.17 167.33,-632.01 167.33,-628.84 167.33,-628.84 167.33,-622.51 167.33,-622.51 167.33,-619.34 170.5,-616.17 173.66,-616.17 173.66,-616.17 300,-616.17 300,-616.17 303.16,-616.17 306.33,-619.34 306.33,-622.51 306.33,-622.51 306.33,-628.84 306.33,-628.84 306.33,-632.01 303.16,-635.17 300,-635.17"/>
<text text-anchor="middle" x="236.83" y="-623.17" font-family="Arial" font-size="10.00">page/DrawerComponent.tsx</text>
</g>
<!-- page/DrawerHeaderComponent.tsx -->
<g id="node20" class="node">
<title>page/DrawerHeaderComponent.tsx</title>
<path fill="none" stroke="green" d="M176.94,-789.39C176.94,-789.39 19.61,-789.39 19.61,-789.39 16.44,-789.39 13.28,-786.22 13.28,-783.05 13.28,-783.05 13.28,-776.72 13.28,-776.72 13.28,-773.55 16.44,-770.39 19.61,-770.39 19.61,-770.39 176.94,-770.39 176.94,-770.39 180.11,-770.39 183.28,-773.55 183.28,-776.72 183.28,-776.72 183.28,-783.05 183.28,-783.05 183.28,-786.22 180.11,-789.39 176.94,-789.39"/>
<text text-anchor="middle" x="98.28" y="-777.39" font-family="Arial" font-size="10.00" fill="green">page/DrawerHeaderComponent.tsx</text>
</g>
<!-- page/DrawerComponent.tsx&#45;&gt;page/DrawerHeaderComponent.tsx -->
<g id="edge16" class="edge">
<title>page/DrawerComponent.tsx&#45;&gt;page/DrawerHeaderComponent.tsx</title>
<path fill="none" stroke="green" d="M225.54,-635.28C139.96,-708.11 129.23,-718.23 107.54,-761.16"/>
<polygon fill="green" stroke="green" points="104.36,-759.7 103.03,-770.21 110.62,-762.82 104.36,-759.7"/>
</g>
<!-- page/MenuItems.tsx -->
<g id="node21" class="node">
<title>page/MenuItems.tsx</title>
<path fill="none" stroke="green" d="M99.67,-530.4C99.67,-530.4 6.33,-530.4 6.33,-530.4 3.17,-530.4 0,-527.23 0,-524.06 0,-524.06 0,-517.73 0,-517.73 0,-514.56 3.17,-511.4 6.33,-511.4 6.33,-511.4 99.67,-511.4 99.67,-511.4 102.83,-511.4 106,-514.56 106,-517.73 106,-517.73 106,-524.06 106,-524.06 106,-527.23 102.83,-530.4 99.67,-530.4"/>
<text text-anchor="middle" x="53" y="-518.4" font-family="Arial" font-size="10.00" fill="green">page/MenuItems.tsx</text>
</g>
<!-- page/DrawerComponent.tsx&#45;&gt;page/MenuItems.tsx -->
<g id="edge17" class="edge">
<title>page/DrawerComponent.tsx&#45;&gt;page/MenuItems.tsx</title>
<path fill="none" stroke="green" d="M210.47,-616.05C115.97,-581.45 101.69,-574.33 68.59,-538.25"/>
<polygon fill="green" stroke="green" points="70.99,-535.7 61.69,-530.63 65.81,-540.4 70.99,-535.7"/>
</g>
<!-- page/MenuToolbar.tsx -->
<g id="node22" class="node">
<title>page/MenuToolbar.tsx</title>
<path fill="none" stroke="black" d="M443.85,-663.58C443.85,-663.58 343.51,-663.58 343.51,-663.58 340.35,-663.58 337.18,-660.42 337.18,-657.25 337.18,-657.25 337.18,-650.92 337.18,-650.92 337.18,-647.75 340.35,-644.58 343.51,-644.58 343.51,-644.58 443.85,-644.58 443.85,-644.58 447.01,-644.58 450.18,-647.75 450.18,-650.92 450.18,-650.92 450.18,-657.25 450.18,-657.25 450.18,-660.42 447.01,-663.58 443.85,-663.58"/>
<text text-anchor="middle" x="393.68" y="-651.58" font-family="Arial" font-size="10.00">page/MenuToolbar.tsx</text>
</g>
<!-- page/DrawerComponent.tsx&#45;&gt;page/MenuToolbar.tsx -->
<g id="edge18" class="edge">
<title>page/DrawerComponent.tsx&#45;&gt;page/MenuToolbar.tsx</title>
<path fill="none" stroke="green" d="M255.7,-635.23C277.57,-645.84 290.9,-649.38 326.78,-651.51"/>
<polygon fill="green" stroke="green" points="326.8,-655.01 336.97,-652.05 327.17,-648.02 326.8,-655.01"/>
</g>
<!-- page/MenuToolbar.tsx&#45;&gt;util/auth/Authentication.ts -->
<g id="edge26" class="edge">
<title>page/MenuToolbar.tsx&#45;&gt;util/auth/Authentication.ts</title>
<path fill="none" stroke="green" d="M404.25,-644.45C445.07,-607.39 455.75,-600.01 563.41,-533.34"/>
<polygon fill="green" stroke="green" points="565.37,-536.25 572.03,-528.01 561.68,-530.29 565.37,-536.25"/>
</g>
<!-- page/Layout.tsx&#45;&gt;page/Footer.tsx -->
<g id="edge19" class="edge">
<title>page/Layout.tsx&#45;&gt;page/Footer.tsx</title>
<path fill="none" stroke="green" d="M757.28,-515.36C899.29,-567.89 917.85,-575.75 968.39,-612.87"/>
<polygon fill="green" stroke="green" points="966.33,-615.69 976.45,-618.82 970.49,-610.06 966.33,-615.69"/>
</g>
<!-- page/Menu.tsx -->
<g id="node25" class="node">
<title>page/Menu.tsx</title>
<path fill="none" stroke="black" d="M501.64,-544.75C501.64,-544.75 433.31,-544.75 433.31,-544.75 430.14,-544.75 426.98,-541.59 426.98,-538.42 426.98,-538.42 426.98,-532.09 426.98,-532.09 426.98,-528.92 430.14,-525.75 433.31,-525.75 433.31,-525.75 501.64,-525.75 501.64,-525.75 504.81,-525.75 507.98,-528.92 507.98,-532.09 507.98,-532.09 507.98,-538.42 507.98,-538.42 507.98,-541.59 504.81,-544.75 501.64,-544.75"/>
<text text-anchor="middle" x="467.48" y="-532.75" font-family="Arial" font-size="10.00">page/Menu.tsx</text>
</g>
<!-- page/Layout.tsx&#45;&gt;page/Menu.tsx -->
<g id="edge20" class="edge">
<title>page/Layout.tsx&#45;&gt;page/Menu.tsx</title>
<path fill="none" stroke="green" d="M688.14,-497.6C582.27,-478 564.19,-480.43 493.07,-520.6"/>
<polygon fill="green" stroke="green" points="491.08,-517.7 484.12,-525.69 494.54,-523.79 491.08,-517.7"/>
</g>
<!-- page/Menu.tsx&#45;&gt;store/store.ts -->
<g id="edge25" class="edge">
<title>page/Menu.tsx&#45;&gt;store/store.ts</title>
<path fill="none" stroke="green" d="M469.2,-544.84C477.94,-593.04 481.26,-601.75 515.68,-628.03"/>
<polygon fill="green" stroke="green" points="513.94,-631.1 524.04,-634.32 518.15,-625.51 513.94,-631.1"/>
</g>
<!-- page/Menu.tsx&#45;&gt;page/DrawerComponent.tsx -->
<g id="edge22" class="edge">
<title>page/Menu.tsx&#45;&gt;page/DrawerComponent.tsx</title>
<path fill="none" stroke="green" d="M438.15,-544.89C324.88,-582.15 303.83,-589.68 263.22,-611.32"/>
<polygon fill="green" stroke="green" points="261.36,-608.35 254.21,-616.17 264.68,-614.51 261.36,-608.35"/>
</g>
<!-- page/Menu.tsx&#45;&gt;page/MenuToolbar.tsx -->
<g id="edge23" class="edge">
<title>page/Menu.tsx&#45;&gt;page/MenuToolbar.tsx</title>
<path fill="none" stroke="green" d="M458.63,-544.79C412.83,-594.24 405.12,-603.85 397.99,-634.01"/>
<polygon fill="green" stroke="green" points="394.5,-633.58 395.75,-644.1 401.33,-635.1 394.5,-633.58"/>
</g>
<!-- page/Menu.tsx&#45;&gt;store/menu.slice.ts -->
<g id="edge24" class="edge">
<title>page/Menu.tsx&#45;&gt;store/menu.slice.ts</title>
<path fill="none" stroke="green" d="M426.63,-533.65C414.51,-533.17 404.91,-532.78 396.9,-532.43"/>
<polygon fill="green" stroke="green" points="397.03,-528.94 386.89,-531.98 396.72,-535.93 397.03,-528.94"/>
</g>
<!-- util/auth/Authentication.ts&#45;&gt;util/envUtil.ts -->
<g id="edge55" class="edge">
<title>util/auth/Authentication.ts&#45;&gt;util/envUtil.ts</title>
<path fill="none" stroke="green" d="M606.74,-528.01C672.61,-560.68 690.25,-569.58 712.61,-582.53"/>
<polygon fill="green" stroke="green" points="711.13,-585.71 721.52,-587.75 714.66,-579.67 711.13,-585.71"/>
</g>
<!-- util/auth/Authentication.ts&#45;&gt;store/auth.slice.ts -->
<g id="edge54" class="edge">
<title>util/auth/Authentication.ts&#45;&gt;store/auth.slice.ts</title>
<path fill="none" stroke="green" d="M574.17,-508.78C500.09,-454.92 484.31,-443.46 458.42,-424.94"/>
<polygon fill="green" stroke="green" points="460.15,-421.88 449.98,-418.92 456.08,-427.58 460.15,-421.88"/>
</g>
<!-- page/Title.tsx -->
<g id="node28" class="node">
<title>page/Title.tsx</title>
<path fill="none" stroke="green" d="M509.67,-811C509.67,-811 446.33,-811 446.33,-811 443.17,-811 440,-807.83 440,-804.67 440,-804.67 440,-798.33 440,-798.33 440,-795.17 443.17,-792 446.33,-792 446.33,-792 509.67,-792 509.67,-792 512.83,-792 516,-795.17 516,-798.33 516,-798.33 516,-804.67 516,-804.67 516,-807.83 512.83,-811 509.67,-811"/>
<text text-anchor="middle" x="478" y="-799" font-family="Arial" font-size="10.00" fill="green">page/Title.tsx</text>
</g>
<!-- route/IData.ts -->
<g id="node29" class="node">
<title>route/IData.ts</title>
<path fill="none" stroke="green" d="M604.31,-19C604.31,-19 539.97,-19 539.97,-19 536.81,-19 533.64,-15.83 533.64,-12.67 533.64,-12.67 533.64,-6.33 533.64,-6.33 533.64,-3.17 536.81,0 539.97,0 539.97,0 604.31,0 604.31,0 607.47,0 610.64,-3.17 610.64,-6.33 610.64,-6.33 610.64,-12.67 610.64,-12.67 610.64,-15.83 607.47,-19 604.31,-19"/>
<text text-anchor="middle" x="572.14" y="-7" font-family="Arial" font-size="10.00" fill="green">route/IData.ts</text>
</g>
<!-- route/auth/AccountTabs.tsx&#45;&gt;components/tab/TabComponent.tsx -->
<g id="edge29" class="edge">
<title>route/auth/AccountTabs.tsx&#45;&gt;components/tab/TabComponent.tsx</title>
<path fill="none" stroke="green" d="M1100.26,-234C1092.38,-227.13 1086.16,-222.22 1079.61,-218.59"/>
<polygon fill="green" stroke="green" points="1080.83,-215.3 1070.27,-214.36 1077.94,-221.67 1080.83,-215.3"/>
</g>
<!-- route/auth/AccountTabs.tsx&#45;&gt;components/tab/subcomponents/TabRender.tsx -->
<g id="edge30" class="edge">
<title>route/auth/AccountTabs.tsx&#45;&gt;components/tab/subcomponents/TabRender.tsx</title>
<path fill="none" stroke="green" d="M1089.22,-234.15C1010.39,-200.18 989.82,-197.49 858.35,-218.88"/>
<polygon fill="green" stroke="green" points="857.57,-215.46 848.27,-220.53 858.7,-222.37 857.57,-215.46"/>
</g>
<!-- util/auth/useOidcConfig.ts&#45;&gt;util/envUtil.ts -->
<g id="edge56" class="edge">
<title>util/auth/useOidcConfig.ts&#45;&gt;util/envUtil.ts</title>
<path fill="none" stroke="green" d="M872.68,-821.45C848.1,-753.31 843.11,-744.89 750.52,-615.34"/>
<polygon fill="green" stroke="green" points="753.25,-613.14 744.59,-607.04 747.56,-617.21 753.25,-613.14"/>
</g>
<!-- route/auth/WaitAndNavigate.tsx&#45;&gt;util/auth/Authentication.ts -->
<g id="edge33" class="edge">
<title>route/auth/WaitAndNavigate.tsx&#45;&gt;util/auth/Authentication.ts</title>
<path fill="none" stroke="green" d="M628.85,-753.35C611.01,-692.81 609.31,-683.19 590.13,-538.53"/>
<polygon fill="green" stroke="green" points="593.56,-537.8 588.78,-528.34 586.62,-538.72 593.56,-537.8"/>
</g>
<!-- route/digitaltwins/DigitalTwinTabData.ts&#45;&gt;route/IData.ts -->
<g id="edge34" class="edge">
<title>route/digitaltwins/DigitalTwinTabData.ts&#45;&gt;route/IData.ts</title>
<path fill="none" stroke="green" d="M583.87,-193.39C576.7,-83.95 575.7,-68.64 573.32,-29.23"/>
<polygon fill="green" stroke="green" points="576.82,-29 572.72,-19.23 569.83,-29.42 576.82,-29"/>
</g>
<!-- route/library/LibraryTabData.ts&#45;&gt;route/IData.ts -->
<g id="edge48" class="edge">
<title>route/library/LibraryTabData.ts&#45;&gt;route/IData.ts</title>
<path fill="none" stroke="green" d="M652.66,-166.44C620.1,-71.72 614.51,-56.95 587.93,-26.85"/>
<polygon fill="green" stroke="green" points="590.4,-24.35 581.11,-19.26 585.19,-29.04 590.4,-24.35"/>
</g>
</g>
</svg>
