<?xml version="1.0" encoding="UTF-8" standalone="no"?>
<!DOCTYPE svg PUBLIC "-//W3C//DTD SVG 1.1//EN"
 "http://www.w3.org/Graphics/SVG/1.1/DTD/svg11.dtd">
<!-- Generated by graphviz version 2.43.0 (0)
 -->
<!-- Title: G Pages: 1 -->
<svg width="1537pt" height="200pt"
 viewBox="0.00 0.00 1537.20 200.15" xmlns="http://www.w3.org/2000/svg" xmlns:xlink="http://www.w3.org/1999/xlink">
<g id="graph0" class="graph" transform="scale(1 1) rotate(0) translate(21.6 178.55)">
<title>G</title>
<polygon fill="#111111" stroke="transparent" points="-21.6,21.6 -21.6,-178.55 1515.6,-178.55 1515.6,21.6 -21.6,21.6"/>
<!-- ../util.ts -->
<g id="node1" class="node">
<title>../util.ts</title>
<path fill="none" stroke="#cfffac" d="M322.33,-125C322.33,-125 278.67,-125 278.67,-125 274.83,-125 271,-121.17 271,-117.33 271,-117.33 271,-109.67 271,-109.67 271,-105.83 274.83,-102 278.67,-102 278.67,-102 322.33,-102 322.33,-102 326.17,-102 330,-105.83 330,-109.67 330,-109.67 330,-117.33 330,-117.33 330,-121.17 326.17,-125 322.33,-125"/>
<text text-anchor="middle" x="300.5" y="-109.8" font-family="Arial" font-size="14.00" fill="#cfffac">../util.ts</text>
</g>
<!-- app.module.ts -->
<g id="node2" class="node">
<title>app.module.ts</title>
<path fill="none" stroke="#c6c5fe" d="M191.33,-104C191.33,-104 104.67,-104 104.67,-104 100.83,-104 97,-100.17 97,-96.33 97,-96.33 97,-88.67 97,-88.67 97,-84.83 100.83,-81 104.67,-81 104.67,-81 191.33,-81 191.33,-81 195.17,-81 199,-84.83 199,-88.67 199,-88.67 199,-96.33 199,-96.33 199,-100.17 195.17,-104 191.33,-104"/>
<text text-anchor="middle" x="148" y="-88.8" font-family="Arial" font-size="14.00" fill="#c6c5fe">app.module.ts</text>
</g>
<!-- app.module.ts&#45;&gt;../util.ts -->
<g id="edge1" class="edge">
<title>app.module.ts&#45;&gt;../util.ts</title>
<path fill="none" stroke="#757575" d="M199.11,-99.49C219.17,-102.29 241.92,-105.47 260.68,-108.08"/>
<polygon fill="#757575" stroke="#757575" points="260.27,-111.56 270.66,-109.48 261.24,-104.63 260.27,-111.56"/>
</g>
<!-- files/files.module.ts -->
<g id="node3" class="node">
<title>files/files.module.ts</title>
<path fill="none" stroke="#c6c5fe" d="M358.33,-84C358.33,-84 242.67,-84 242.67,-84 238.83,-84 235,-80.17 235,-76.33 235,-76.33 235,-68.67 235,-68.67 235,-64.83 238.83,-61 242.67,-61 242.67,-61 358.33,-61 358.33,-61 362.17,-61 366,-64.83 366,-68.67 366,-68.67 366,-76.33 366,-76.33 366,-80.17 362.17,-84 358.33,-84"/>
<text text-anchor="middle" x="300.5" y="-68.8" font-family="Arial" font-size="14.00" fill="#c6c5fe">files/files.module.ts</text>
</g>
<!-- app.module.ts&#45;&gt;files/files.module.ts -->
<g id="edge2" class="edge">
<title>app.module.ts&#45;&gt;files/files.module.ts</title>
<path fill="none" stroke="#757575" d="M199.11,-85.84C207.35,-84.75 216.04,-83.59 224.72,-82.44"/>
<polygon fill="#757575" stroke="#757575" points="225.43,-85.87 234.88,-81.09 224.51,-78.94 225.43,-85.87"/>
</g>
<!-- files/resolvers/files.resolver.ts -->
<g id="node4" class="node">
<title>files/resolvers/files.resolver.ts</title>
<path fill="none" stroke="#c6c5fe" d="M586.33,-104C586.33,-104 409.67,-104 409.67,-104 405.83,-104 402,-100.17 402,-96.33 402,-96.33 402,-88.67 402,-88.67 402,-84.83 405.83,-81 409.67,-81 409.67,-81 586.33,-81 586.33,-81 590.17,-81 594,-84.83 594,-88.67 594,-88.67 594,-96.33 594,-96.33 594,-100.17 590.17,-104 586.33,-104"/>
<text text-anchor="middle" x="498" y="-88.8" font-family="Arial" font-size="14.00" fill="#c6c5fe">files/resolvers/files.resolver.ts</text>
</g>
<!-- files/files.module.ts&#45;&gt;files/resolvers/files.resolver.ts -->
<g id="edge3" class="edge">
<title>files/files.module.ts&#45;&gt;files/resolvers/files.resolver.ts</title>
<path fill="none" stroke="#757575" d="M366.06,-79.1C374.29,-79.95 382.88,-80.83 391.55,-81.71"/>
<polygon fill="#757575" stroke="#757575" points="391.45,-85.22 401.75,-82.76 392.16,-78.26 391.45,-85.22"/>
</g>
<!-- files/services/files&#45;service.factory.ts -->
<g id="node5" class="node">
<title>files/services/files&#45;service.factory.ts</title>
<path fill="none" stroke="#c6c5fe" d="M849.33,-64C849.33,-64 637.67,-64 637.67,-64 633.83,-64 630,-60.17 630,-56.33 630,-56.33 630,-48.67 630,-48.67 630,-44.83 633.83,-41 637.67,-41 637.67,-41 849.33,-41 849.33,-41 853.17,-41 857,-44.83 857,-48.67 857,-48.67 857,-56.33 857,-56.33 857,-60.17 853.17,-64 849.33,-64"/>
<text text-anchor="middle" x="743.5" y="-48.8" font-family="Arial" font-size="14.00" fill="#c6c5fe">files/services/files&#45;service.factory.ts</text>
</g>
<!-- files/files.module.ts&#45;&gt;files/services/files&#45;service.factory.ts -->
<g id="edge4" class="edge">
<title>files/files.module.ts&#45;&gt;files/services/files&#45;service.factory.ts</title>
<path fill="none" stroke="#757575" d="M366.1,-69.57C432.47,-66.56 537.43,-61.8 619.67,-58.07"/>
<polygon fill="#757575" stroke="#757575" points="620,-61.56 629.84,-57.61 619.69,-54.57 620,-61.56"/>
</g>
<!-- files/services/gitlab&#45;files.service.ts -->
<g id="node6" class="node">
<title>files/services/gitlab&#45;files.service.ts</title>
<path fill="none" stroke="#c6c5fe" d="M1104.33,-25C1104.33,-25 900.67,-25 900.67,-25 896.83,-25 893,-21.17 893,-17.33 893,-17.33 893,-9.67 893,-9.67 893,-5.83 896.83,-2 900.67,-2 900.67,-2 1104.33,-2 1104.33,-2 1108.17,-2 1112,-5.83 1112,-9.67 1112,-9.67 1112,-17.33 1112,-17.33 1112,-21.17 1108.17,-25 1104.33,-25"/>
<text text-anchor="middle" x="1002.5" y="-9.8" font-family="Arial" font-size="14.00" fill="#c6c5fe">files/services/gitlab&#45;files.service.ts</text>
</g>
<!-- files/files.module.ts&#45;&gt;files/services/gitlab&#45;files.service.ts -->
<g id="edge5" class="edge">
<title>files/files.module.ts&#45;&gt;files/services/gitlab&#45;files.service.ts</title>
<path fill="none" stroke="#757575" d="M366.04,-61.75C377.98,-59.9 390.36,-58.06 402,-56.5 503.03,-42.93 528.38,-39.53 630,-31.5 714.38,-24.84 809.75,-20.28 882.74,-17.41"/>
<polygon fill="#757575" stroke="#757575" points="883.02,-20.91 892.88,-17.02 882.75,-13.91 883.02,-20.91"/>
</g>
<!-- files/services/local&#45;files.service.ts -->
<g id="node7" class="node">
<title>files/services/local&#45;files.service.ts</title>
<path fill="none" stroke="#c6c5fe" d="M1102.33,-143C1102.33,-143 902.67,-143 902.67,-143 898.83,-143 895,-139.17 895,-135.33 895,-135.33 895,-127.67 895,-127.67 895,-123.83 898.83,-120 902.67,-120 902.67,-120 1102.33,-120 1102.33,-120 1106.17,-120 1110,-123.83 1110,-127.67 1110,-127.67 1110,-135.33 1110,-135.33 1110,-139.17 1106.17,-143 1102.33,-143"/>
<text text-anchor="middle" x="1002.5" y="-127.8" font-family="Arial" font-size="14.00" fill="#c6c5fe">files/services/local&#45;files.service.ts</text>
</g>
<!-- files/files.module.ts&#45;&gt;files/services/local&#45;files.service.ts -->
<g id="edge6" class="edge">
<title>files/files.module.ts&#45;&gt;files/services/local&#45;files.service.ts</title>
<path fill="none" stroke="#757575" d="M343.25,-84.06C350.92,-86.57 358.78,-89.41 366,-92.5 382.83,-99.69 384.36,-107.63 402,-112.5 564.92,-157.48 762.25,-153.06 884.85,-143.8"/>
<polygon fill="#757575" stroke="#757575" points="885.32,-147.28 895.01,-143.01 884.77,-140.3 885.32,-147.28"/>
</g>
<!-- files/resolvers/files.resolver.ts&#45;&gt;files/services/files&#45;service.factory.ts -->
<g id="edge9" class="edge">
<title>files/resolvers/files.resolver.ts&#45;&gt;files/services/files&#45;service.factory.ts</title>
<path fill="none" stroke="#757575" d="M569.1,-80.98C598.26,-76.19 632.27,-70.61 662.41,-65.66"/>
<polygon fill="#757575" stroke="#757575" points="663.17,-69.08 672.47,-64 662.03,-62.17 663.17,-69.08"/>
</g>
<!-- files/interfaces/files.service.interface.ts -->
<g id="node8" class="node">
<title>files/interfaces/files.service.interface.ts</title>
<path fill="none" stroke="#c6c5fe" d="M1387.33,-103C1387.33,-103 1155.67,-103 1155.67,-103 1151.83,-103 1148,-99.17 1148,-95.33 1148,-95.33 1148,-87.67 1148,-87.67 1148,-83.83 1151.83,-80 1155.67,-80 1155.67,-80 1387.33,-80 1387.33,-80 1391.17,-80 1395,-83.83 1395,-87.67 1395,-87.67 1395,-95.33 1395,-95.33 1395,-99.17 1391.17,-103 1387.33,-103"/>
<text text-anchor="middle" x="1271.5" y="-87.8" font-family="Arial" font-size="14.00" fill="#c6c5fe">files/interfaces/files.service.interface.ts</text>
</g>
<!-- files/resolvers/files.resolver.ts&#45;&gt;files/interfaces/files.service.interface.ts -->
<g id="edge8" class="edge">
<title>files/resolvers/files.resolver.ts&#45;&gt;files/interfaces/files.service.interface.ts</title>
<path fill="none" stroke="#757575" d="M594.37,-92.38C730.97,-92.2 982.86,-91.87 1137.64,-91.67"/>
<polygon fill="#757575" stroke="#757575" points="1137.69,-95.17 1147.69,-91.66 1137.69,-88.17 1137.69,-95.17"/>
</g>
<!-- types.ts -->
<g id="node9" class="node">
<title>types.ts</title>
<path fill="none" stroke="#cfffac" d="M1486.33,-123C1486.33,-123 1438.67,-123 1438.67,-123 1434.83,-123 1431,-119.17 1431,-115.33 1431,-115.33 1431,-107.67 1431,-107.67 1431,-103.83 1434.83,-100 1438.67,-100 1438.67,-100 1486.33,-100 1486.33,-100 1490.17,-100 1494,-103.83 1494,-107.67 1494,-107.67 1494,-115.33 1494,-115.33 1494,-119.17 1490.17,-123 1486.33,-123"/>
<text text-anchor="middle" x="1462.5" y="-107.8" font-family="Arial" font-size="14.00" fill="#cfffac">types.ts</text>
</g>
<!-- files/resolvers/files.resolver.ts&#45;&gt;types.ts -->
<g id="edge10" class="edge">
<title>files/resolvers/files.resolver.ts&#45;&gt;types.ts</title>
<path fill="none" stroke="#757575" d="M556.44,-104.04C632.88,-118.75 772.43,-143.37 893,-152.5 990.06,-159.85 1014.72,-155.59 1112,-152.5 1237.97,-148.5 1271.44,-159.32 1395,-134.5 1404.6,-132.57 1414.71,-129.6 1424.06,-126.42"/>
<polygon fill="#757575" stroke="#757575" points="1425.24,-129.71 1433.49,-123.07 1422.9,-123.12 1425.24,-129.71"/>
</g>
<!-- files/services/files&#45;service.factory.ts&#45;&gt;files/services/gitlab&#45;files.service.ts -->
<g id="edge12" class="edge">
<title>files/services/files&#45;service.factory.ts&#45;&gt;files/services/gitlab&#45;files.service.ts</title>
<path fill="none" stroke="#757575" d="M820.57,-40.96C850.35,-36.44 884.68,-31.23 915.37,-26.57"/>
<polygon fill="#757575" stroke="#757575" points="916.27,-29.97 925.63,-25.01 915.22,-23.05 916.27,-29.97"/>
</g>
<!-- files/services/files&#45;service.factory.ts&#45;&gt;files/services/local&#45;files.service.ts -->
<g id="edge13" class="edge">
<title>files/services/files&#45;service.factory.ts&#45;&gt;files/services/local&#45;files.service.ts</title>
<path fill="none" stroke="#757575" d="M782.15,-64.07C827.67,-78.07 904.33,-101.63 953.91,-116.87"/>
<polygon fill="#757575" stroke="#757575" points="953.17,-120.3 963.75,-119.9 955.22,-113.61 953.17,-120.3"/>
</g>
<!-- files/services/files&#45;service.factory.ts&#45;&gt;files/interfaces/files.service.interface.ts -->
<g id="edge11" class="edge">
<title>files/services/files&#45;service.factory.ts&#45;&gt;files/interfaces/files.service.interface.ts</title>
<path fill="none" stroke="#757575" d="M857.13,-59.57C929.88,-64.29 1026.57,-70.82 1112,-77.5 1120.31,-78.15 1128.87,-78.84 1137.5,-79.56"/>
<polygon fill="#757575" stroke="#757575" points="1137.39,-83.06 1147.65,-80.4 1137.97,-76.08 1137.39,-83.06"/>
</g>
<!-- files/services/gitlab&#45;files.service.ts&#45;&gt;files/interfaces/files.service.interface.ts -->
<g id="edge14" class="edge">
<title>files/services/gitlab&#45;files.service.ts&#45;&gt;files/interfaces/files.service.interface.ts</title>
<path fill="none" stroke="#757575" d="M1069.72,-25.02C1084.02,-28.7 1098.8,-33.44 1112,-39.5 1129.94,-47.73 1129.96,-57.5 1148,-65.5 1158.79,-70.28 1170.52,-74.21 1182.29,-77.42"/>
<polygon fill="#757575" stroke="#757575" points="1181.62,-80.86 1192.18,-79.96 1183.36,-74.08 1181.62,-80.86"/>
</g>
<!-- files/services/gitlab&#45;files.service.ts&#45;&gt;types.ts -->
<g id="edge16" class="edge">
<title>files/services/gitlab&#45;files.service.ts&#45;&gt;types.ts</title>
<path fill="none" stroke="#757575" d="M1096.6,-25.04C1203.44,-38.6 1367.52,-60.52 1395,-70.5 1410.49,-76.13 1426.26,-85.65 1438.55,-94.1"/>
<polygon fill="#757575" stroke="#757575" points="1436.65,-97.05 1446.83,-100 1440.71,-91.35 1436.65,-97.05"/>
</g>
<!-- files/queries.ts -->
<g id="node10" class="node">
<title>files/queries.ts</title>
<path fill="none" stroke="#cfffac" d="M1315.33,-23C1315.33,-23 1227.67,-23 1227.67,-23 1223.83,-23 1220,-19.17 1220,-15.33 1220,-15.33 1220,-7.67 1220,-7.67 1220,-3.83 1223.83,0 1227.67,0 1227.67,0 1315.33,0 1315.33,0 1319.17,0 1323,-3.83 1323,-7.67 1323,-7.67 1323,-15.33 1323,-15.33 1323,-19.17 1319.17,-23 1315.33,-23"/>
<text text-anchor="middle" x="1271.5" y="-7.8" font-family="Arial" font-size="14.00" fill="#cfffac">files/queries.ts</text>
</g>
<!-- files/services/gitlab&#45;files.service.ts&#45;&gt;files/queries.ts -->
<g id="edge15" class="edge">
<title>files/services/gitlab&#45;files.service.ts&#45;&gt;files/queries.ts</title>
<path fill="none" stroke="#757575" d="M1112.1,-12.69C1145.27,-12.44 1180.58,-12.17 1209.41,-11.96"/>
<polygon fill="#757575" stroke="#757575" points="1209.76,-15.46 1219.73,-11.88 1209.7,-8.46 1209.76,-15.46"/>
</g>
<!-- files/services/local&#45;files.service.ts&#45;&gt;files/interfaces/files.service.interface.ts -->
<g id="edge17" class="edge">
<title>files/services/local&#45;files.service.ts&#45;&gt;files/interfaces/files.service.interface.ts</title>
<path fill="none" stroke="#757575" d="M1080.37,-119.98C1112.62,-115.15 1150.28,-109.51 1183.54,-104.53"/>
<polygon fill="#757575" stroke="#757575" points="1184.34,-107.95 1193.71,-103 1183.3,-101.02 1184.34,-107.95"/>
</g>
<!-- files/services/local&#45;files.service.ts&#45;&gt;types.ts -->
<g id="edge18" class="edge">
<title>files/services/local&#45;files.service.ts&#45;&gt;types.ts</title>
<path fill="none" stroke="#757575" d="M1110.01,-126.85C1209.06,-122.52 1351.42,-116.31 1420.63,-113.28"/>
<polygon fill="#757575" stroke="#757575" points="1420.85,-116.78 1430.69,-112.85 1420.55,-109.79 1420.85,-116.78"/>
</g>
<!-- files/interfaces/files.service.interface.ts&#45;&gt;types.ts -->
<g id="edge7" class="edge">
<title>files/interfaces/files.service.interface.ts&#45;&gt;types.ts</title>
<path fill="none" stroke="#757575" d="M1381.35,-103.02C1395.31,-104.5 1408.84,-105.93 1420.69,-107.18"/>
<polygon fill="#757575" stroke="#757575" points="1420.33,-110.66 1430.64,-108.23 1421.06,-103.7 1420.33,-110.66"/>
</g>
<!-- main.ts -->
<g id="node11" class="node">
<title>main.ts</title>
<path fill="none" stroke="#c6c5fe" d="M53.33,-104C53.33,-104 7.67,-104 7.67,-104 3.83,-104 0,-100.17 0,-96.33 0,-96.33 0,-88.67 0,-88.67 0,-84.83 3.83,-81 7.67,-81 7.67,-81 53.33,-81 53.33,-81 57.17,-81 61,-84.83 61,-88.67 61,-88.67 61,-96.33 61,-96.33 61,-100.17 57.17,-104 53.33,-104"/>
<text text-anchor="middle" x="30.5" y="-88.8" font-family="Arial" font-size="14.00" fill="#c6c5fe">main.ts</text>
</g>
<!-- main.ts&#45;&gt;app.module.ts -->
<g id="edge19" class="edge">
<title>main.ts&#45;&gt;app.module.ts</title>
<path fill="none" stroke="#757575" d="M61.24,-92.5C69.03,-92.5 77.7,-92.5 86.47,-92.5"/>
<polygon fill="#757575" stroke="#757575" points="86.75,-96 96.75,-92.5 86.75,-89 86.75,-96"/>
</g>
</g>
</svg>
