<?xml version="1.0" encoding="UTF-8" standalone="no"?>
<!DOCTYPE svg PUBLIC "-//W3C//DTD SVG 1.1//EN"
 "http://www.w3.org/Graphics/SVG/1.1/DTD/svg11.dtd">
<!-- Generated by graphviz version 2.43.0 (0)
 -->
<!-- Title: G Pages: 1 -->
<svg width="978pt" height="525pt"
 viewBox="0.00 0.00 977.51 524.63" xmlns="http://www.w3.org/2000/svg" xmlns:xlink="http://www.w3.org/1999/xlink">
<g id="graph0" class="graph" transform="scale(1 1) rotate(0) translate(21.6 503.03)">
<title>G</title>
<polygon fill="#ffffff" stroke="transparent" points="-21.6,21.6 -21.6,-503.03 955.91,-503.03 955.91,21.6 -21.6,21.6"/>
<!-- app.module.ts -->
<g id="node1" class="node">
<title>app.module.ts</title>
<path fill="none" stroke="black" d="M420.38,-267.96C420.38,-267.96 355.05,-267.96 355.05,-267.96 351.88,-267.96 348.71,-264.79 348.71,-261.63 348.71,-261.63 348.71,-255.29 348.71,-255.29 348.71,-252.13 351.88,-248.96 355.05,-248.96 355.05,-248.96 420.38,-248.96 420.38,-248.96 423.55,-248.96 426.71,-252.13 426.71,-255.29 426.71,-255.29 426.71,-261.63 426.71,-261.63 426.71,-264.79 423.55,-267.96 420.38,-267.96"/>
<text text-anchor="middle" x="387.71" y="-255.96" font-family="Arial" font-size="10.00">app.module.ts</text>
</g>
<!-- files/files.module.ts -->
<g id="node2" class="node">
<title>files/files.module.ts</title>
<path fill="none" stroke="black" d="M598.25,-333.47C598.25,-333.47 509.92,-333.47 509.92,-333.47 506.75,-333.47 503.58,-330.3 503.58,-327.14 503.58,-327.14 503.58,-320.8 503.58,-320.8 503.58,-317.64 506.75,-314.47 509.92,-314.47 509.92,-314.47 598.25,-314.47 598.25,-314.47 601.42,-314.47 604.58,-317.64 604.58,-320.8 604.58,-320.8 604.58,-327.14 604.58,-327.14 604.58,-330.3 601.42,-333.47 598.25,-333.47"/>
<text text-anchor="middle" x="554.08" y="-321.47" font-family="Arial" font-size="10.00">files/files.module.ts</text>
</g>
<!-- app.module.ts&#45;&gt;files/files.module.ts -->
<g id="edge1" class="edge">
<title>app.module.ts&#45;&gt;files/files.module.ts</title>
<path fill="none" stroke="green" d="M399.69,-268C447.3,-305.85 465.84,-319.31 493.37,-323.36"/>
<polygon fill="green" stroke="green" points="493.24,-326.87 503.55,-324.43 493.97,-319.9 493.24,-326.87"/>
</g>
<!-- files/resolvers/files.resolver.ts -->
<g id="node5" class="node">
<title>files/resolvers/files.resolver.ts</title>
<path fill="none" stroke="black" d="M793.37,-378.12C793.37,-378.12 659.04,-378.12 659.04,-378.12 655.87,-378.12 652.71,-374.95 652.71,-371.78 652.71,-371.78 652.71,-365.45 652.71,-365.45 652.71,-362.28 655.87,-359.12 659.04,-359.12 659.04,-359.12 793.37,-359.12 793.37,-359.12 796.54,-359.12 799.71,-362.28 799.71,-365.45 799.71,-365.45 799.71,-371.78 799.71,-371.78 799.71,-374.95 796.54,-378.12 793.37,-378.12"/>
<text text-anchor="middle" x="726.21" y="-366.12" font-family="Arial" font-size="10.00">files/resolvers/files.resolver.ts</text>
</g>
<!-- files/files.module.ts&#45;&gt;files/resolvers/files.resolver.ts -->
<g id="edge5" class="edge">
<title>files/files.module.ts&#45;&gt;files/resolvers/files.resolver.ts</title>
<path fill="none" stroke="green" d="M581.34,-333.52C612.05,-344.26 632.74,-351.36 648.72,-356.18"/>
<polygon fill="green" stroke="green" points="648.03,-359.62 658.6,-359.04 649.97,-352.9 648.03,-359.62"/>
</g>
<!-- files/services/files&#45;service.factory.ts -->
<g id="node6" class="node">
<title>files/services/files&#45;service.factory.ts</title>
<path fill="none" stroke="black" d="M731.96,-481.43C731.96,-481.43 571.63,-481.43 571.63,-481.43 568.46,-481.43 565.3,-478.27 565.3,-475.1 565.3,-475.1 565.3,-468.77 565.3,-468.77 565.3,-465.6 568.46,-462.43 571.63,-462.43 571.63,-462.43 731.96,-462.43 731.96,-462.43 735.13,-462.43 738.3,-465.6 738.3,-468.77 738.3,-468.77 738.3,-475.1 738.3,-475.1 738.3,-478.27 735.13,-481.43 731.96,-481.43"/>
<text text-anchor="middle" x="651.8" y="-469.43" font-family="Arial" font-size="10.00">files/services/files&#45;service.factory.ts</text>
</g>
<!-- files/files.module.ts&#45;&gt;files/services/files&#45;service.factory.ts -->
<g id="edge6" class="edge">
<title>files/files.module.ts&#45;&gt;files/services/files&#45;service.factory.ts</title>
<path fill="none" stroke="green" d="M561.02,-333.68C615.9,-410.5 625.12,-423.66 641.52,-453.17"/>
<polygon fill="green" stroke="green" points="638.48,-454.92 646.37,-462 644.62,-451.55 638.48,-454.92"/>
</g>
<!-- files/services/local&#45;files.service.ts -->
<g id="node7" class="node">
<title>files/services/local&#45;files.service.ts</title>
<path fill="none" stroke="black" d="M800.68,-289.67C800.68,-289.67 649.34,-289.67 649.34,-289.67 646.18,-289.67 643.01,-286.5 643.01,-283.33 643.01,-283.33 643.01,-277 643.01,-277 643.01,-273.83 646.18,-270.67 649.34,-270.67 649.34,-270.67 800.68,-270.67 800.68,-270.67 803.84,-270.67 807.01,-273.83 807.01,-277 807.01,-277 807.01,-283.33 807.01,-283.33 807.01,-286.5 803.84,-289.67 800.68,-289.67"/>
<text text-anchor="middle" x="725.01" y="-277.67" font-family="Arial" font-size="10.00">files/services/local&#45;files.service.ts</text>
</g>
<!-- files/files.module.ts&#45;&gt;files/services/local&#45;files.service.ts -->
<g id="edge7" class="edge">
<title>files/files.module.ts&#45;&gt;files/services/local&#45;files.service.ts</title>
<path fill="none" stroke="green" d="M604.66,-319.54C659.37,-314.36 675.59,-310.34 701.12,-295.22"/>
<polygon fill="green" stroke="green" points="703.1,-298.12 709.8,-289.91 699.44,-292.15 703.1,-298.12"/>
</g>
<!-- bootstrap.ts -->
<g id="node3" class="node">
<title>bootstrap.ts</title>
<path fill="none" stroke="black" d="M246.72,-198.08C246.72,-198.08 191.39,-198.08 191.39,-198.08 188.22,-198.08 185.06,-194.92 185.06,-191.75 185.06,-191.75 185.06,-185.42 185.06,-185.42 185.06,-182.25 188.22,-179.08 191.39,-179.08 191.39,-179.08 246.72,-179.08 246.72,-179.08 249.89,-179.08 253.06,-182.25 253.06,-185.42 253.06,-185.42 253.06,-191.75 253.06,-191.75 253.06,-194.92 249.89,-198.08 246.72,-198.08"/>
<text text-anchor="middle" x="219.06" y="-186.08" font-family="Arial" font-size="10.00">bootstrap.ts</text>
</g>
<!-- bootstrap.ts&#45;&gt;app.module.ts -->
<g id="edge2" class="edge">
<title>bootstrap.ts&#45;&gt;app.module.ts</title>
<path fill="none" stroke="green" d="M234.23,-198.36C263.89,-217.18 277.28,-222.78 348.15,-245.72"/>
<polygon fill="green" stroke="green" points="347.46,-249.18 358.05,-248.92 349.61,-242.52 347.46,-249.18"/>
</g>
<!-- cloudcmd/cloudcmd.ts -->
<g id="node4" class="node">
<title>cloudcmd/cloudcmd.ts</title>
<path fill="none" stroke="red" d="M108.67,-293.17C108.67,-293.17 6.33,-293.17 6.33,-293.17 3.17,-293.17 0,-290 0,-286.84 0,-286.84 0,-280.5 0,-280.5 0,-277.34 3.17,-274.17 6.33,-274.17 6.33,-274.17 108.67,-274.17 108.67,-274.17 111.83,-274.17 115,-277.34 115,-280.5 115,-280.5 115,-286.84 115,-286.84 115,-290 111.83,-293.17 108.67,-293.17"/>
<text text-anchor="middle" x="57.5" y="-281.17" font-family="Arial" font-size="10.00" fill="red">cloudcmd/cloudcmd.ts</text>
</g>
<!-- bootstrap.ts&#45;&gt;cloudcmd/cloudcmd.ts -->
<g id="edge3" class="edge">
<title>bootstrap.ts&#45;&gt;cloudcmd/cloudcmd.ts</title>
<path fill="none" stroke="green" d="M194.91,-198.2C114.38,-230.34 100.44,-237.43 73.15,-266.51"/>
<polygon fill="green" stroke="green" points="70.49,-264.22 66.28,-273.95 75.64,-268.97 70.49,-264.22"/>
</g>
<!-- cloudcmd/cloudcmd.ts&#45;&gt;cloudcmd/cloudcmd.ts -->
<g id="edge4" class="edge">
<title>cloudcmd/cloudcmd.ts&#45;&gt;cloudcmd/cloudcmd.ts</title>
<path fill="none" stroke="green" d="M115.11,-290.05C125.62,-289.24 133,-287.11 133,-283.67 133,-281.46 129.97,-279.8 125.03,-278.67"/>
<polygon fill="green" stroke="green" points="125.49,-275.2 115.11,-277.29 124.53,-282.13 125.49,-275.2"/>
</g>
<!-- files/resolvers/files.resolver.ts&#45;&gt;files/services/files&#45;service.factory.ts -->
<g id="edge10" class="edge">
<title>files/resolvers/files.resolver.ts&#45;&gt;files/services/files&#45;service.factory.ts</title>
<path fill="none" stroke="green" d="M723.68,-378.42C711.26,-426.33 707.22,-435.81 675.66,-456.76"/>
<polygon fill="green" stroke="green" points="673.5,-453.99 667.02,-462.36 677.31,-459.86 673.5,-453.99"/>
</g>
<!-- files/interfaces/files.service.interface.ts -->
<g id="node8" class="node">
<title>files/interfaces/files.service.interface.ts</title>
<path fill="none" stroke="black" d="M927.98,-456.4C927.98,-456.4 752.65,-456.4 752.65,-456.4 749.48,-456.4 746.31,-453.24 746.31,-450.07 746.31,-450.07 746.31,-443.74 746.31,-443.74 746.31,-440.57 749.48,-437.4 752.65,-437.4 752.65,-437.4 927.98,-437.4 927.98,-437.4 931.15,-437.4 934.31,-440.57 934.31,-443.74 934.31,-443.74 934.31,-450.07 934.31,-450.07 934.31,-453.24 931.15,-456.4 927.98,-456.4"/>
<text text-anchor="middle" x="840.31" y="-444.4" font-family="Arial" font-size="10.00">files/interfaces/files.service.interface.ts</text>
</g>
<!-- files/resolvers/files.resolver.ts&#45;&gt;files/interfaces/files.service.interface.ts -->
<g id="edge9" class="edge">
<title>files/resolvers/files.resolver.ts&#45;&gt;files/interfaces/files.service.interface.ts</title>
<path fill="none" stroke="green" d="M741.4,-378.32C790.05,-409.41 804.18,-418.62 820.18,-430.91"/>
<polygon fill="green" stroke="green" points="818.31,-433.9 828.34,-437.31 822.63,-428.39 818.31,-433.9"/>
</g>
<!-- types.ts -->
<g id="node9" class="node">
<title>types.ts</title>
<path fill="none" stroke="green" d="M913.11,-296.39C913.11,-296.39 871.78,-296.39 871.78,-296.39 868.61,-296.39 865.45,-293.22 865.45,-290.06 865.45,-290.06 865.45,-283.72 865.45,-283.72 865.45,-280.56 868.61,-277.39 871.78,-277.39 871.78,-277.39 913.11,-277.39 913.11,-277.39 916.28,-277.39 919.45,-280.56 919.45,-283.72 919.45,-283.72 919.45,-290.06 919.45,-290.06 919.45,-293.22 916.28,-296.39 913.11,-296.39"/>
<text text-anchor="middle" x="892.45" y="-284.39" font-family="Arial" font-size="10.00" fill="green">types.ts</text>
</g>
<!-- files/resolvers/files.resolver.ts&#45;&gt;types.ts -->
<g id="edge11" class="edge">
<title>files/resolvers/files.resolver.ts&#45;&gt;types.ts</title>
<path fill="none" stroke="green" d="M761.76,-359.09C833.5,-339.61 847.42,-333.15 876.04,-304.06"/>
<polygon fill="green" stroke="green" points="878.81,-306.23 883.24,-296.61 873.77,-301.37 878.81,-306.23"/>
</g>
<!-- files/services/files&#45;service.factory.ts&#45;&gt;files/services/local&#45;files.service.ts -->
<g id="edge13" class="edge">
<title>files/services/files&#45;service.factory.ts&#45;&gt;files/services/local&#45;files.service.ts</title>
<path fill="none" stroke="green" d="M661.02,-462.33C719.53,-401.3 723.24,-393.07 724.73,-299.95"/>
<polygon fill="green" stroke="green" points="728.23,-299.79 724.88,-289.74 721.23,-299.69 728.23,-299.79"/>
</g>
<!-- files/services/files&#45;service.factory.ts&#45;&gt;files/interfaces/files.service.interface.ts -->
<g id="edge12" class="edge">
<title>files/services/files&#45;service.factory.ts&#45;&gt;files/interfaces/files.service.interface.ts</title>
<path fill="none" stroke="green" d="M738.35,-478.25C772.23,-479.05 788.28,-474.63 813.87,-461.38"/>
<polygon fill="green" stroke="green" points="815.77,-464.33 822.95,-456.54 812.48,-458.15 815.77,-464.33"/>
</g>
<!-- files/services/local&#45;files.service.ts&#45;&gt;files/interfaces/files.service.interface.ts -->
<g id="edge14" class="edge">
<title>files/services/local&#45;files.service.ts&#45;&gt;files/interfaces/files.service.interface.ts</title>
<path fill="none" stroke="green" d="M734.46,-289.89C811.16,-368.75 819.98,-379.09 834.6,-427.43"/>
<polygon fill="green" stroke="green" points="831.32,-428.68 837.52,-437.28 838.03,-426.69 831.32,-428.68"/>
</g>
<!-- files/services/local&#45;files.service.ts&#45;&gt;types.ts -->
<g id="edge15" class="edge">
<title>files/services/local&#45;files.service.ts&#45;&gt;types.ts</title>
<path fill="none" stroke="green" d="M807.26,-285.33C829.03,-286.57 842.21,-287.09 855.23,-287.21"/>
<polygon fill="green" stroke="green" points="855.29,-290.71 865.29,-287.23 855.3,-283.71 855.29,-290.71"/>
</g>
<!-- files/interfaces/files.service.interface.ts&#45;&gt;types.ts -->
<g id="edge8" class="edge">
<title>files/interfaces/files.service.interface.ts&#45;&gt;types.ts</title>
<path fill="none" stroke="green" d="M848.42,-437.15C894.25,-381.9 897.87,-373.74 893.75,-306.88"/>
<polygon fill="green" stroke="green" points="897.22,-306.33 893.09,-296.57 890.24,-306.78 897.22,-306.33"/>
</g>
<!-- main.ts -->
<g id="node10" class="node">
<title>main.ts</title>
<path fill="none" stroke="black" d="M183.88,-19C183.88,-19 142.54,-19 142.54,-19 139.38,-19 136.21,-15.83 136.21,-12.67 136.21,-12.67 136.21,-6.33 136.21,-6.33 136.21,-3.17 139.38,0 142.54,0 142.54,0 183.88,0 183.88,0 187.04,0 190.21,-3.17 190.21,-6.33 190.21,-6.33 190.21,-12.67 190.21,-12.67 190.21,-15.83 187.04,-19 183.88,-19"/>
<text text-anchor="middle" x="163.21" y="-7" font-family="Arial" font-size="10.00">main.ts</text>
</g>
<!-- main.ts&#45;&gt;bootstrap.ts -->
<g id="edge16" class="edge">
<title>main.ts&#45;&gt;bootstrap.ts</title>
<path fill="none" stroke="green" d="M162.49,-19.22C158.18,-78.15 160.31,-86.07 208.6,-170.37"/>
<polygon fill="green" stroke="green" points="205.57,-172.12 213.58,-179.05 211.64,-168.64 205.57,-172.12"/>
</g>
</g>
</svg>
