<?xml version="1.0" encoding="UTF-8" standalone="no"?>
<!DOCTYPE svg PUBLIC "-//W3C//DTD SVG 1.1//EN"
 "http://www.w3.org/Graphics/SVG/1.1/DTD/svg11.dtd">
<!-- Generated by graphviz version 2.43.0 (0)
 -->
<!-- Title: G Pages: 1 -->
<svg width="862pt" height="952pt"
 viewBox="0.00 0.00 861.67 952.49" xmlns="http://www.w3.org/2000/svg" xmlns:xlink="http://www.w3.org/1999/xlink">
<g id="graph0" class="graph" transform="scale(1 1) rotate(0) translate(21.6 930.89)">
<title>G</title>
<polygon fill="#ffffff" stroke="transparent" points="-21.6,21.6 -21.6,-930.89 840.07,-930.89 840.07,21.6 -21.6,21.6"/>
<!-- ../util.ts -->
<g id="node1" class="node">
<title>../util.ts</title>
<path fill="none" stroke="green" d="M568.81,-909.29C568.81,-909.29 527.48,-909.29 527.48,-909.29 524.31,-909.29 521.15,-906.13 521.15,-902.96 521.15,-902.96 521.15,-896.63 521.15,-896.63 521.15,-893.46 524.31,-890.29 527.48,-890.29 527.48,-890.29 568.81,-890.29 568.81,-890.29 571.98,-890.29 575.15,-893.46 575.15,-896.63 575.15,-896.63 575.15,-902.96 575.15,-902.96 575.15,-906.13 571.98,-909.29 568.81,-909.29"/>
<text text-anchor="middle" x="548.15" y="-897.29" font-family="Arial" font-size="10.00" fill="green">../util.ts</text>
</g>
<!-- app.module.ts -->
<g id="node2" class="node">
<title>app.module.ts</title>
<path fill="none" stroke="black" d="M585.18,-669.33C585.18,-669.33 519.84,-669.33 519.84,-669.33 516.68,-669.33 513.51,-666.16 513.51,-662.99 513.51,-662.99 513.51,-656.66 513.51,-656.66 513.51,-653.49 516.68,-650.33 519.84,-650.33 519.84,-650.33 585.18,-650.33 585.18,-650.33 588.34,-650.33 591.51,-653.49 591.51,-656.66 591.51,-656.66 591.51,-662.99 591.51,-662.99 591.51,-666.16 588.34,-669.33 585.18,-669.33"/>
<text text-anchor="middle" x="552.51" y="-657.33" font-family="Arial" font-size="10.00">app.module.ts</text>
</g>
<!-- app.module.ts&#45;&gt;../util.ts -->
<g id="edge1" class="edge">
<title>app.module.ts&#45;&gt;../util.ts</title>
<path fill="none" stroke="green" d="M553.53,-669.71C567.91,-809.19 568.93,-823.73 553.55,-880.32"/>
<polygon fill="green" stroke="green" points="550.12,-879.62 550.83,-890.19 556.86,-881.48 550.12,-879.62"/>
</g>
<!-- files/files.module.ts -->
<g id="node3" class="node">
<title>files/files.module.ts</title>
<path fill="none" stroke="black" d="M422.44,-507.39C422.44,-507.39 334.11,-507.39 334.11,-507.39 330.94,-507.39 327.78,-504.22 327.78,-501.05 327.78,-501.05 327.78,-494.72 327.78,-494.72 327.78,-491.55 330.94,-488.39 334.11,-488.39 334.11,-488.39 422.44,-488.39 422.44,-488.39 425.61,-488.39 428.78,-491.55 428.78,-494.72 428.78,-494.72 428.78,-501.05 428.78,-501.05 428.78,-504.22 425.61,-507.39 422.44,-507.39"/>
<text text-anchor="middle" x="378.28" y="-495.39" font-family="Arial" font-size="10.00">files/files.module.ts</text>
</g>
<!-- app.module.ts&#45;&gt;files/files.module.ts -->
<g id="edge2" class="edge">
<title>app.module.ts&#45;&gt;files/files.module.ts</title>
<path fill="none" stroke="green" d="M535.49,-650.29C486.86,-622.73 476.28,-611.97 393.21,-515.28"/>
<polygon fill="green" stroke="green" points="395.74,-512.86 386.57,-507.55 390.43,-517.42 395.74,-512.86"/>
</g>
<!-- files/resolvers/files.resolver.ts -->
<g id="node4" class="node">
<title>files/resolvers/files.resolver.ts</title>
<path fill="none" stroke="black" d="M206.09,-521.87C206.09,-521.87 71.76,-521.87 71.76,-521.87 68.59,-521.87 65.42,-518.7 65.42,-515.54 65.42,-515.54 65.42,-509.2 65.42,-509.2 65.42,-506.04 68.59,-502.87 71.76,-502.87 71.76,-502.87 206.09,-502.87 206.09,-502.87 209.26,-502.87 212.42,-506.04 212.42,-509.2 212.42,-509.2 212.42,-515.54 212.42,-515.54 212.42,-518.7 209.26,-521.87 206.09,-521.87"/>
<text text-anchor="middle" x="138.92" y="-509.87" font-family="Arial" font-size="10.00">files/resolvers/files.resolver.ts</text>
</g>
<!-- files/files.module.ts&#45;&gt;files/resolvers/files.resolver.ts -->
<g id="edge3" class="edge">
<title>files/files.module.ts&#45;&gt;files/resolvers/files.resolver.ts</title>
<path fill="none" stroke="green" d="M327.4,-504.79C276.06,-511.68 246.08,-515.34 222.83,-516.66"/>
<polygon fill="green" stroke="green" points="222.4,-513.17 212.56,-517.1 222.7,-520.16 222.4,-513.17"/>
</g>
<!-- files/services/files&#45;service.factory.ts -->
<g id="node5" class="node">
<title>files/services/files&#45;service.factory.ts</title>
<path fill="none" stroke="black" d="M383.32,-378.17C383.32,-378.17 222.98,-378.17 222.98,-378.17 219.82,-378.17 216.65,-375.01 216.65,-371.84 216.65,-371.84 216.65,-365.51 216.65,-365.51 216.65,-362.34 219.82,-359.17 222.98,-359.17 222.98,-359.17 383.32,-359.17 383.32,-359.17 386.48,-359.17 389.65,-362.34 389.65,-365.51 389.65,-365.51 389.65,-371.84 389.65,-371.84 389.65,-375.01 386.48,-378.17 383.32,-378.17"/>
<text text-anchor="middle" x="303.15" y="-366.17" font-family="Arial" font-size="10.00">files/services/files&#45;service.factory.ts</text>
</g>
<!-- files/files.module.ts&#45;&gt;files/services/files&#45;service.factory.ts -->
<g id="edge4" class="edge">
<title>files/files.module.ts&#45;&gt;files/services/files&#45;service.factory.ts</title>
<path fill="none" stroke="green" d="M369.41,-488.02C320.24,-433.26 313,-423.69 306.48,-388.45"/>
<polygon fill="green" stroke="green" points="309.89,-387.59 304.73,-378.34 302.99,-388.79 309.89,-387.59"/>
</g>
<!-- files/services/gitlab&#45;files.service.ts -->
<g id="node6" class="node">
<title>files/services/gitlab&#45;files.service.ts</title>
<path fill="none" stroke="black" d="M413.56,-224.28C413.56,-224.28 259.22,-224.28 259.22,-224.28 256.06,-224.28 252.89,-221.12 252.89,-217.95 252.89,-217.95 252.89,-211.62 252.89,-211.62 252.89,-208.45 256.06,-205.28 259.22,-205.28 259.22,-205.28 413.56,-205.28 413.56,-205.28 416.72,-205.28 419.89,-208.45 419.89,-211.62 419.89,-211.62 419.89,-217.95 419.89,-217.95 419.89,-221.12 416.72,-224.28 413.56,-224.28"/>
<text text-anchor="middle" x="336.39" y="-212.28" font-family="Arial" font-size="10.00">files/services/gitlab&#45;files.service.ts</text>
</g>
<!-- files/files.module.ts&#45;&gt;files/services/gitlab&#45;files.service.ts -->
<g id="edge5" class="edge">
<title>files/files.module.ts&#45;&gt;files/services/gitlab&#45;files.service.ts</title>
<path fill="none" stroke="green" d="M375.87,-488.2C334.25,-320.36 330.99,-305.58 335.15,-234.77"/>
<polygon fill="green" stroke="green" points="338.67,-234.58 335.78,-224.38 331.68,-234.15 338.67,-234.58"/>
</g>
<!-- files/services/local&#45;files.service.ts -->
<g id="node7" class="node">
<title>files/services/local&#45;files.service.ts</title>
<path fill="none" stroke="black" d="M208.2,-448.46C208.2,-448.46 56.86,-448.46 56.86,-448.46 53.7,-448.46 50.53,-445.29 50.53,-442.12 50.53,-442.12 50.53,-435.79 50.53,-435.79 50.53,-432.62 53.7,-429.46 56.86,-429.46 56.86,-429.46 208.2,-429.46 208.2,-429.46 211.36,-429.46 214.53,-432.62 214.53,-435.79 214.53,-435.79 214.53,-442.12 214.53,-442.12 214.53,-445.29 211.36,-448.46 208.2,-448.46"/>
<text text-anchor="middle" x="132.53" y="-436.46" font-family="Arial" font-size="10.00">files/services/local&#45;files.service.ts</text>
</g>
<!-- files/files.module.ts&#45;&gt;files/services/local&#45;files.service.ts -->
<g id="edge6" class="edge">
<title>files/files.module.ts&#45;&gt;files/services/local&#45;files.service.ts</title>
<path fill="none" stroke="green" d="M327.74,-490.58C226.14,-475.73 203.36,-470.88 162.49,-452.77"/>
<polygon fill="green" stroke="green" points="163.72,-449.48 153.17,-448.56 160.84,-455.86 163.72,-449.48"/>
</g>
<!-- files/resolvers/files.resolver.ts&#45;&gt;files/services/files&#45;service.factory.ts -->
<g id="edge9" class="edge">
<title>files/resolvers/files.resolver.ts&#45;&gt;files/services/files&#45;service.factory.ts</title>
<path fill="none" stroke="green" d="M143.91,-502.69C175.11,-442.27 182.14,-435.02 276.91,-383.02"/>
<polygon fill="green" stroke="green" points="278.65,-386.06 285.74,-378.18 275.28,-379.92 278.65,-386.06"/>
</g>
<!-- files/interfaces/files.service.interface.ts -->
<g id="node8" class="node">
<title>files/interfaces/files.service.interface.ts</title>
<path fill="none" stroke="black" d="M238.54,-243.44C238.54,-243.44 63.2,-243.44 63.2,-243.44 60.04,-243.44 56.87,-240.27 56.87,-237.11 56.87,-237.11 56.87,-230.77 56.87,-230.77 56.87,-227.61 60.04,-224.44 63.2,-224.44 63.2,-224.44 238.54,-224.44 238.54,-224.44 241.7,-224.44 244.87,-227.61 244.87,-230.77 244.87,-230.77 244.87,-237.11 244.87,-237.11 244.87,-240.27 241.7,-243.44 238.54,-243.44"/>
<text text-anchor="middle" x="150.87" y="-231.44" font-family="Arial" font-size="10.00">files/interfaces/files.service.interface.ts</text>
</g>
<!-- files/resolvers/files.resolver.ts&#45;&gt;files/interfaces/files.service.interface.ts -->
<g id="edge8" class="edge">
<title>files/resolvers/files.resolver.ts&#45;&gt;files/interfaces/files.service.interface.ts</title>
<path fill="none" stroke="green" d="M135.94,-502.55C94.09,-364.69 92.91,-354.81 141.84,-252.71"/>
<polygon fill="green" stroke="green" points="145.07,-254.07 146.24,-243.54 138.76,-251.04 145.07,-254.07"/>
</g>
<!-- types.ts -->
<g id="node9" class="node">
<title>types.ts</title>
<path fill="none" stroke="green" d="M47.67,-290.55C47.67,-290.55 6.33,-290.55 6.33,-290.55 3.17,-290.55 0,-287.38 0,-284.21 0,-284.21 0,-277.88 0,-277.88 0,-274.71 3.17,-271.55 6.33,-271.55 6.33,-271.55 47.67,-271.55 47.67,-271.55 50.83,-271.55 54,-274.71 54,-277.88 54,-277.88 54,-284.21 54,-284.21 54,-287.38 50.83,-290.55 47.67,-290.55"/>
<text text-anchor="middle" x="27" y="-278.55" font-family="Arial" font-size="10.00" fill="green">types.ts</text>
</g>
<!-- files/resolvers/files.resolver.ts&#45;&gt;types.ts -->
<g id="edge10" class="edge">
<title>files/resolvers/files.resolver.ts&#45;&gt;types.ts</title>
<path fill="none" stroke="green" d="M130.71,-502.77C39.06,-395.49 32.69,-385.8 28.03,-300.94"/>
<polygon fill="green" stroke="green" points="31.51,-300.58 27.49,-290.78 24.52,-300.95 31.51,-300.58"/>
</g>
<!-- files/services/files&#45;service.factory.ts&#45;&gt;files/services/gitlab&#45;files.service.ts -->
<g id="edge12" class="edge">
<title>files/services/files&#45;service.factory.ts&#45;&gt;files/services/gitlab&#45;files.service.ts</title>
<path fill="none" stroke="green" d="M303.29,-358.89C304.45,-277.97 305.34,-264.99 324.69,-233.24"/>
<polygon fill="green" stroke="green" points="327.69,-235.04 330.02,-224.71 321.75,-231.34 327.69,-235.04"/>
</g>
<!-- files/services/files&#45;service.factory.ts&#45;&gt;files/services/local&#45;files.service.ts -->
<g id="edge13" class="edge">
<title>files/services/files&#45;service.factory.ts&#45;&gt;files/services/local&#45;files.service.ts</title>
<path fill="none" stroke="green" d="M258.81,-378.17C193.96,-392.42 179.1,-398.53 151.09,-422.51"/>
<polygon fill="green" stroke="green" points="148.44,-420.17 143.22,-429.39 153.05,-425.44 148.44,-420.17"/>
</g>
<!-- files/services/files&#45;service.factory.ts&#45;&gt;files/interfaces/files.service.interface.ts -->
<g id="edge11" class="edge">
<title>files/services/files&#45;service.factory.ts&#45;&gt;files/interfaces/files.service.interface.ts</title>
<path fill="none" stroke="green" d="M292.23,-359.15C211.35,-288.6 197.26,-276.27 169.16,-250.65"/>
<polygon fill="green" stroke="green" points="171.41,-247.97 161.66,-243.81 166.69,-253.14 171.41,-247.97"/>
</g>
<!-- files/services/gitlab&#45;files.service.ts&#45;&gt;files/interfaces/files.service.interface.ts -->
<g id="edge14" class="edge">
<title>files/services/gitlab&#45;files.service.ts&#45;&gt;files/interfaces/files.service.interface.ts</title>
<path fill="none" stroke="green" d="M281.46,-205.23C230.12,-197.26 213.59,-200.09 177.27,-219.36"/>
<polygon fill="green" stroke="green" points="175.25,-216.47 168.13,-224.31 178.59,-222.62 175.25,-216.47"/>
</g>
<!-- files/services/gitlab&#45;files.service.ts&#45;&gt;types.ts -->
<g id="edge16" class="edge">
<title>files/services/gitlab&#45;files.service.ts&#45;&gt;types.ts</title>
<path fill="none" stroke="green" d="M252.53,-211.21C142.58,-207.71 120.67,-216 49.17,-265.55"/>
<polygon fill="green" stroke="green" points="46.88,-262.87 40.68,-271.46 50.88,-268.62 46.88,-262.87"/>
</g>
<!-- files/queries.ts -->
<g id="node10" class="node">
<title>files/queries.ts</title>
<path fill="none" stroke="green" d="M477.37,-19C477.37,-19 410.03,-19 410.03,-19 406.87,-19 403.7,-15.83 403.7,-12.67 403.7,-12.67 403.7,-6.33 403.7,-6.33 403.7,-3.17 406.87,0 410.03,0 410.03,0 477.37,0 477.37,0 480.53,0 483.7,-3.17 483.7,-6.33 483.7,-6.33 483.7,-12.67 483.7,-12.67 483.7,-15.83 480.53,-19 477.37,-19"/>
<text text-anchor="middle" x="443.7" y="-7" font-family="Arial" font-size="10.00" fill="green">files/queries.ts</text>
</g>
<!-- files/services/gitlab&#45;files.service.ts&#45;&gt;files/queries.ts -->
<g id="edge15" class="edge">
<title>files/services/gitlab&#45;files.service.ts&#45;&gt;files/queries.ts</title>
<path fill="none" stroke="green" d="M339.75,-204.97C382.05,-81.68 387.83,-66.69 426.87,-26.5"/>
<polygon fill="green" stroke="green" points="429.49,-28.84 434,-19.25 424.49,-23.93 429.49,-28.84"/>
</g>
<!-- files/services/local&#45;files.service.ts&#45;&gt;files/interfaces/files.service.interface.ts -->
<g id="edge17" class="edge">
<title>files/services/local&#45;files.service.ts&#45;&gt;files/interfaces/files.service.interface.ts</title>
<path fill="none" stroke="green" d="M130.26,-429.45C106.23,-328.77 105.31,-318.57 140.53,-253"/>
<polygon fill="green" stroke="green" points="143.81,-254.28 145.49,-243.82 137.65,-250.95 143.81,-254.28"/>
</g>
<!-- files/services/local&#45;files.service.ts&#45;&gt;types.ts -->
<g id="edge18" class="edge">
<title>files/services/local&#45;files.service.ts&#45;&gt;types.ts</title>
<path fill="none" stroke="green" d="M122.95,-429.36C51.86,-358.07 43.71,-348.41 31.67,-300.4"/>
<polygon fill="green" stroke="green" points="35.06,-299.5 29.28,-290.62 28.26,-301.16 35.06,-299.5"/>
</g>
<!-- files/interfaces/files.service.interface.ts&#45;&gt;types.ts -->
<g id="edge7" class="edge">
<title>files/interfaces/files.service.interface.ts&#45;&gt;types.ts</title>
<path fill="none" stroke="green" d="M83.58,-243.54C67.13,-247.57 57.66,-253.23 44.86,-264.44"/>
<polygon fill="green" stroke="green" points="42.39,-261.96 37.34,-271.27 47.1,-267.14 42.39,-261.96"/>
</g>
<!-- main.ts -->
<g id="node11" class="node">
<title>main.ts</title>
<path fill="none" stroke="black" d="M812.13,-658.22C812.13,-658.22 770.8,-658.22 770.8,-658.22 767.63,-658.22 764.47,-655.06 764.47,-651.89 764.47,-651.89 764.47,-645.56 764.47,-645.56 764.47,-642.39 767.63,-639.22 770.8,-639.22 770.8,-639.22 812.13,-639.22 812.13,-639.22 815.3,-639.22 818.47,-642.39 818.47,-645.56 818.47,-645.56 818.47,-651.89 818.47,-651.89 818.47,-655.06 815.3,-658.22 812.13,-658.22"/>
<text text-anchor="middle" x="791.47" y="-646.22" font-family="Arial" font-size="10.00">main.ts</text>
</g>
<!-- main.ts&#45;&gt;app.module.ts -->
<g id="edge19" class="edge">
<title>main.ts&#45;&gt;app.module.ts</title>
<path fill="none" stroke="green" d="M768.54,-658.34C716.24,-679.75 698.36,-680.91 601.73,-667.06"/>
<polygon fill="green" stroke="green" points="602.21,-663.59 591.81,-665.63 601.21,-670.52 602.21,-663.59"/>
</g>
</g>
</svg>
