<?xml version="1.0" encoding="UTF-8" standalone="no"?>
<!DOCTYPE svg PUBLIC "-//W3C//DTD SVG 1.1//EN"
 "http://www.w3.org/Graphics/SVG/1.1/DTD/svg11.dtd">
<!-- Generated by graphviz version 2.43.0 (0)
 -->
<!-- Title: G Pages: 1 -->
<svg width="436pt" height="900pt"
 viewBox="0.00 0.00 436.27 900.17" xmlns="http://www.w3.org/2000/svg" xmlns:xlink="http://www.w3.org/1999/xlink">
<g id="graph0" class="graph" transform="scale(1 1) rotate(0) translate(21.6 878.57)">
<title>G</title>
<polygon fill="#ffffff" stroke="transparent" points="-21.6,21.6 -21.6,-878.57 414.67,-878.57 414.67,21.6 -21.6,21.6"/>
<!-- app.module.ts -->
<g id="node1" class="node">
<title>app.module.ts</title>
<path fill="none" stroke="black" d="M164.47,-358.3C164.47,-358.3 99.14,-358.3 99.14,-358.3 95.97,-358.3 92.81,-355.13 92.81,-351.96 92.81,-351.96 92.81,-345.63 92.81,-345.63 92.81,-342.46 95.97,-339.3 99.14,-339.3 99.14,-339.3 164.47,-339.3 164.47,-339.3 167.64,-339.3 170.81,-342.46 170.81,-345.63 170.81,-345.63 170.81,-351.96 170.81,-351.96 170.81,-355.13 167.64,-358.3 164.47,-358.3"/>
<text text-anchor="middle" x="131.81" y="-346.3" font-family="Arial" font-size="10.00">app.module.ts</text>
</g>
<!-- files/files.module.ts -->
<g id="node2" class="node">
<title>files/files.module.ts</title>
<path fill="none" stroke="black" d="M209.66,-528.95C209.66,-528.95 121.33,-528.95 121.33,-528.95 118.16,-528.95 114.99,-525.78 114.99,-522.62 114.99,-522.62 114.99,-516.28 114.99,-516.28 114.99,-513.12 118.16,-509.95 121.33,-509.95 121.33,-509.95 209.66,-509.95 209.66,-509.95 212.83,-509.95 215.99,-513.12 215.99,-516.28 215.99,-516.28 215.99,-522.62 215.99,-522.62 215.99,-525.78 212.83,-528.95 209.66,-528.95"/>
<text text-anchor="middle" x="165.49" y="-516.95" font-family="Arial" font-size="10.00">files/files.module.ts</text>
</g>
<!-- app.module.ts&#45;&gt;files/files.module.ts -->
<g id="edge1" class="edge">
<title>app.module.ts&#45;&gt;files/files.module.ts</title>
<path fill="none" stroke="green" d="M129.91,-358.39C115.49,-431.58 115.82,-440.17 154,-501.22"/>
<polygon fill="green" stroke="green" points="151.09,-503.17 159.37,-509.77 157.02,-499.44 151.09,-503.17"/>
</g>
<!-- files/resolvers/files.resolver.ts -->
<g id="node4" class="node">
<title>files/resolvers/files.resolver.ts</title>
<path fill="none" stroke="black" d="M386.74,-676.21C386.74,-676.21 252.41,-676.21 252.41,-676.21 249.24,-676.21 246.07,-673.04 246.07,-669.88 246.07,-669.88 246.07,-663.54 246.07,-663.54 246.07,-660.38 249.24,-657.21 252.41,-657.21 252.41,-657.21 386.74,-657.21 386.74,-657.21 389.91,-657.21 393.07,-660.38 393.07,-663.54 393.07,-663.54 393.07,-669.88 393.07,-669.88 393.07,-673.04 389.91,-676.21 386.74,-676.21"/>
<text text-anchor="middle" x="319.57" y="-664.21" font-family="Arial" font-size="10.00">files/resolvers/files.resolver.ts</text>
</g>
<!-- files/files.module.ts&#45;&gt;files/resolvers/files.resolver.ts -->
<g id="edge3" class="edge">
<title>files/files.module.ts&#45;&gt;files/resolvers/files.resolver.ts</title>
<path fill="none" stroke="green" d="M173.05,-529.24C239.98,-615.93 252.89,-631.63 291.24,-652.3"/>
<polygon fill="green" stroke="green" points="289.94,-655.56 300.42,-657.1 293.19,-649.36 289.94,-655.56"/>
</g>
<!-- files/services/files&#45;service.factory.ts -->
<g id="node5" class="node">
<title>files/services/files&#45;service.factory.ts</title>
<path fill="none" stroke="black" d="M288.71,-649.21C288.71,-649.21 128.38,-649.21 128.38,-649.21 125.21,-649.21 122.05,-646.04 122.05,-642.87 122.05,-642.87 122.05,-636.54 122.05,-636.54 122.05,-633.37 125.21,-630.21 128.38,-630.21 128.38,-630.21 288.71,-630.21 288.71,-630.21 291.88,-630.21 295.05,-633.37 295.05,-636.54 295.05,-636.54 295.05,-642.87 295.05,-642.87 295.05,-646.04 291.88,-649.21 288.71,-649.21"/>
<text text-anchor="middle" x="208.55" y="-637.21" font-family="Arial" font-size="10.00">files/services/files&#45;service.factory.ts</text>
</g>
<!-- files/files.module.ts&#45;&gt;files/services/files&#45;service.factory.ts -->
<g id="edge4" class="edge">
<title>files/files.module.ts&#45;&gt;files/services/files&#45;service.factory.ts</title>
<path fill="none" stroke="green" d="M167.74,-529.1C181.6,-588.61 185.14,-602.34 196.69,-621.45"/>
<polygon fill="green" stroke="green" points="193.87,-623.54 202.18,-630.12 199.79,-619.8 193.87,-623.54"/>
</g>
<!-- files/services/local&#45;files.service.ts -->
<g id="node6" class="node">
<title>files/services/local&#45;files.service.ts</title>
<path fill="none" stroke="black" d="M157.67,-709.07C157.67,-709.07 6.33,-709.07 6.33,-709.07 3.17,-709.07 0,-705.91 0,-702.74 0,-702.74 0,-696.41 0,-696.41 0,-693.24 3.17,-690.07 6.33,-690.07 6.33,-690.07 157.67,-690.07 157.67,-690.07 160.83,-690.07 164,-693.24 164,-696.41 164,-696.41 164,-702.74 164,-702.74 164,-705.91 160.83,-709.07 157.67,-709.07"/>
<text text-anchor="middle" x="82" y="-697.07" font-family="Arial" font-size="10.00">files/services/local&#45;files.service.ts</text>
</g>
<!-- files/files.module.ts&#45;&gt;files/services/local&#45;files.service.ts -->
<g id="edge5" class="edge">
<title>files/files.module.ts&#45;&gt;files/services/local&#45;files.service.ts</title>
<path fill="none" stroke="green" d="M161.13,-529.23C116,-630.49 109.36,-645.25 91.46,-680.85"/>
<polygon fill="green" stroke="green" points="88.29,-679.37 86.91,-689.87 94.54,-682.52 88.29,-679.37"/>
</g>
<!-- bootstrap.ts -->
<g id="node3" class="node">
<title>bootstrap.ts</title>
<path fill="none" stroke="black" d="M135.4,-189.11C135.4,-189.11 80.07,-189.11 80.07,-189.11 76.9,-189.11 73.73,-185.94 73.73,-182.77 73.73,-182.77 73.73,-176.44 73.73,-176.44 73.73,-173.27 76.9,-170.11 80.07,-170.11 80.07,-170.11 135.4,-170.11 135.4,-170.11 138.57,-170.11 141.73,-173.27 141.73,-176.44 141.73,-176.44 141.73,-182.77 141.73,-182.77 141.73,-185.94 138.57,-189.11 135.4,-189.11"/>
<text text-anchor="middle" x="107.73" y="-177.11" font-family="Arial" font-size="10.00">bootstrap.ts</text>
</g>
<!-- bootstrap.ts&#45;&gt;app.module.ts -->
<g id="edge2" class="edge">
<title>bootstrap.ts&#45;&gt;app.module.ts</title>
<path fill="none" stroke="green" d="M107.3,-189.35C105.53,-230.9 106.82,-239.65 127.36,-329.41"/>
<polygon fill="green" stroke="green" points="123.97,-330.29 129.62,-339.25 130.8,-328.72 123.97,-330.29"/>
</g>
<!-- files/resolvers/files.resolver.ts&#45;&gt;files/services/files&#45;service.factory.ts -->
<g id="edge8" class="edge">
<title>files/resolvers/files.resolver.ts&#45;&gt;files/services/files&#45;service.factory.ts</title>
<path fill="none" stroke="green" d="M245.65,-660.26C242.19,-658.5 238.43,-656.5 234.31,-654.24"/>
<polygon fill="green" stroke="green" points="235.74,-651.03 225.3,-649.22 232.33,-657.14 235.74,-651.03"/>
</g>
<!-- files/interfaces/files.service.interface.ts -->
<g id="node7" class="node">
<title>files/interfaces/files.service.interface.ts</title>
<path fill="none" stroke="black" d="M356.71,-809.52C356.71,-809.52 181.38,-809.52 181.38,-809.52 178.21,-809.52 175.05,-806.35 175.05,-803.18 175.05,-803.18 175.05,-796.85 175.05,-796.85 175.05,-793.68 178.21,-790.52 181.38,-790.52 181.38,-790.52 356.71,-790.52 356.71,-790.52 359.88,-790.52 363.05,-793.68 363.05,-796.85 363.05,-796.85 363.05,-803.18 363.05,-803.18 363.05,-806.35 359.88,-809.52 356.71,-809.52"/>
<text text-anchor="middle" x="269.05" y="-797.52" font-family="Arial" font-size="10.00">files/interfaces/files.service.interface.ts</text>
</g>
<!-- files/resolvers/files.resolver.ts&#45;&gt;files/interfaces/files.service.interface.ts -->
<g id="edge7" class="edge">
<title>files/resolvers/files.resolver.ts&#45;&gt;files/interfaces/files.service.interface.ts</title>
<path fill="none" stroke="green" d="M317.89,-676.26C305.64,-745.5 302.67,-758.77 283.85,-782.42"/>
<polygon fill="green" stroke="green" points="281.12,-780.23 277.47,-790.17 286.53,-784.68 281.12,-780.23"/>
</g>
<!-- types.ts -->
<g id="node8" class="node">
<title>types.ts</title>
<path fill="none" stroke="green" d="M177.61,-856.97C177.61,-856.97 136.28,-856.97 136.28,-856.97 133.11,-856.97 129.94,-853.8 129.94,-850.64 129.94,-850.64 129.94,-844.3 129.94,-844.3 129.94,-841.14 133.11,-837.97 136.28,-837.97 136.28,-837.97 177.61,-837.97 177.61,-837.97 180.78,-837.97 183.94,-841.14 183.94,-844.3 183.94,-844.3 183.94,-850.64 183.94,-850.64 183.94,-853.8 180.78,-856.97 177.61,-856.97"/>
<text text-anchor="middle" x="156.94" y="-844.97" font-family="Arial" font-size="10.00" fill="green">types.ts</text>
</g>
<!-- files/resolvers/files.resolver.ts&#45;&gt;types.ts -->
<g id="edge9" class="edge">
<title>files/resolvers/files.resolver.ts&#45;&gt;types.ts</title>
<path fill="none" stroke="green" d="M314.41,-676.23C253.23,-788.97 243.94,-804.01 185.74,-833.4"/>
<polygon fill="green" stroke="green" points="184.18,-830.27 176.78,-837.85 187.3,-836.53 184.18,-830.27"/>
</g>
<!-- files/services/files&#45;service.factory.ts&#45;&gt;files/services/local&#45;files.service.ts -->
<g id="edge11" class="edge">
<title>files/services/files&#45;service.factory.ts&#45;&gt;files/services/local&#45;files.service.ts</title>
<path fill="none" stroke="green" d="M196.73,-649.5C175.64,-666.94 161.85,-678 150.18,-685.13"/>
<polygon fill="green" stroke="green" points="148.26,-682.19 141.17,-690.06 151.62,-688.33 148.26,-682.19"/>
</g>
<!-- files/services/files&#45;service.factory.ts&#45;&gt;files/interfaces/files.service.interface.ts -->
<g id="edge10" class="edge">
<title>files/services/files&#45;service.factory.ts&#45;&gt;files/interfaces/files.service.interface.ts</title>
<path fill="none" stroke="green" d="M211.55,-649.44C238.56,-737.02 243.41,-752.04 258.8,-781.12"/>
<polygon fill="green" stroke="green" points="255.87,-783.08 263.69,-790.23 262.04,-779.76 255.87,-783.08"/>
</g>
<!-- files/services/local&#45;files.service.ts&#45;&gt;files/interfaces/files.service.interface.ts -->
<g id="edge12" class="edge">
<title>files/services/local&#45;files.service.ts&#45;&gt;files/interfaces/files.service.interface.ts</title>
<path fill="none" stroke="green" d="M91.49,-709.25C138.13,-756.77 159.14,-777.15 186.05,-787.31"/>
<polygon fill="green" stroke="green" points="185.28,-790.74 195.87,-790.51 187.44,-784.09 185.28,-790.74"/>
</g>
<!-- files/services/local&#45;files.service.ts&#45;&gt;types.ts -->
<g id="edge13" class="edge">
<title>files/services/local&#45;files.service.ts&#45;&gt;types.ts</title>
<path fill="none" stroke="green" d="M84.75,-709.23C107.95,-790.71 112.57,-804.43 139.35,-830.83"/>
<polygon fill="green" stroke="green" points="137.03,-833.45 146.67,-837.86 141.89,-828.41 137.03,-833.45"/>
</g>
<!-- files/interfaces/files.service.interface.ts&#45;&gt;types.ts -->
<g id="edge6" class="edge">
<title>files/interfaces/files.service.interface.ts&#45;&gt;types.ts</title>
<path fill="none" stroke="green" d="M257.93,-809.7C227.25,-836.32 216.01,-844.45 194.33,-846.75"/>
<polygon fill="green" stroke="green" points="194.05,-843.26 184.3,-847.41 194.51,-850.24 194.05,-843.26"/>
</g>
<!-- main.ts -->
<g id="node9" class="node">
<title>main.ts</title>
<path fill="none" stroke="black" d="M135.66,-19C135.66,-19 94.32,-19 94.32,-19 91.16,-19 87.99,-15.83 87.99,-12.67 87.99,-12.67 87.99,-6.33 87.99,-6.33 87.99,-3.17 91.16,0 94.32,0 94.32,0 135.66,0 135.66,0 138.82,0 141.99,-3.17 141.99,-6.33 141.99,-6.33 141.99,-12.67 141.99,-12.67 141.99,-15.83 138.82,-19 135.66,-19"/>
<text text-anchor="middle" x="114.99" y="-7" font-family="Arial" font-size="10.00">main.ts</text>
</g>
<!-- main.ts&#45;&gt;bootstrap.ts -->
<g id="edge14" class="edge">
<title>main.ts&#45;&gt;bootstrap.ts</title>
<path fill="none" stroke="green" d="M112.75,-19.23C103.59,-59.36 103.27,-68.33 106.94,-159.84"/>
<polygon fill="green" stroke="green" points="103.44,-160.02 107.34,-169.88 110.43,-159.74 103.44,-160.02"/>
</g>
</g>
</svg>
